<mxfile host="Electron" modified="2024-07-20T22:59:11.659Z" agent="Mozilla/5.0 (Windows NT 10.0; Win64; x64) AppleWebKit/537.36 (KHTML, like Gecko) draw.io/24.4.8 Chrome/124.0.6367.207 Electron/30.0.6 Safari/537.36" etag="_GynrPedlD92R2OFFE2U" version="24.4.8" type="device">
  <diagram name="Page-1" id="KZN-zyBD-0XipZeYQRDT">
    <mxGraphModel dx="572" dy="331" grid="1" gridSize="10" guides="1" tooltips="1" connect="1" arrows="1" fold="1" page="1" pageScale="1" pageWidth="500" pageHeight="200" math="0" shadow="0">
      <root>
        <mxCell id="0" />
        <mxCell id="1" parent="0" />
        <mxCell id="YbWxmgszaFembR20GTfz-60" value="" style="group" parent="1" vertex="1" connectable="0">
          <mxGeometry x="9" y="78" width="482.6" height="44.45" as="geometry" />
        </mxCell>
        <mxCell id="PZP4gdgeWaH-fIwLRfgN-368" value="" style="rounded=0;whiteSpace=wrap;html=1;fillColor=#C5C5C5;strokeColor=#B5B5B5;glass=0;aspect=fixed;container=0;" parent="YbWxmgszaFembR20GTfz-60" vertex="1">
          <mxGeometry width="482.6" height="44.45" as="geometry" />
        </mxCell>
        <mxCell id="PZP4gdgeWaH-fIwLRfgN-369" value="" style="rounded=0;whiteSpace=wrap;html=1;fillColor=#C5C5C5;strokeColor=#B5B5B5;glass=0;aspect=fixed;container=0;" parent="YbWxmgszaFembR20GTfz-60" vertex="1">
          <mxGeometry x="18" width="446.6" height="44.45" as="geometry" />
        </mxCell>
        <mxCell id="8-Y4Epgb5bJB_0jupaL6-1" value="" style="group;strokeColor=#222222;rounded=1;arcSize=50;container=0;" parent="YbWxmgszaFembR20GTfz-60" vertex="1" connectable="0">
          <mxGeometry x="468.6" y="3" width="10" height="6" as="geometry" />
        </mxCell>
        <mxCell id="8-Y4Epgb5bJB_0jupaL6-2" value="" style="group;rounded=1;strokeColor=#222222;arcSize=50;container=0;" parent="YbWxmgszaFembR20GTfz-60" vertex="1" connectable="0">
          <mxGeometry x="468.6" y="35.45" width="10" height="6" as="geometry" />
        </mxCell>
        <mxCell id="8-Y4Epgb5bJB_0jupaL6-3" value="" style="group;rounded=1;strokeColor=#222222;arcSize=50;container=0;" parent="YbWxmgszaFembR20GTfz-60" vertex="1" connectable="0">
          <mxGeometry x="4" y="3" width="10" height="6" as="geometry" />
        </mxCell>
        <mxCell id="8-Y4Epgb5bJB_0jupaL6-4" value="" style="group;strokeColor=#222222;rounded=1;arcSize=50;container=0;" parent="YbWxmgszaFembR20GTfz-60" vertex="1" connectable="0">
          <mxGeometry x="4" y="35.45" width="10" height="6" as="geometry" />
        </mxCell>
        <mxCell id="dPUykWXNvH8D_2w4ptwh-170" value="2" style="text;html=1;align=center;verticalAlign=middle;whiteSpace=wrap;rounded=0;fontSize=3;fontColor=#000000;container=0;" parent="YbWxmgszaFembR20GTfz-60" vertex="1">
          <mxGeometry x="242.3" y="36.22999999999999" width="12" height="5" as="geometry" />
        </mxCell>
        <mxCell id="dPUykWXNvH8D_2w4ptwh-171" value="4" style="text;html=1;align=center;verticalAlign=middle;whiteSpace=wrap;rounded=0;fontSize=3;fontColor=#000000;container=0;" parent="YbWxmgszaFembR20GTfz-60" vertex="1">
          <mxGeometry x="255.3" y="36.22999999999999" width="12" height="5" as="geometry" />
        </mxCell>
        <mxCell id="dPUykWXNvH8D_2w4ptwh-172" value="6" style="text;html=1;align=center;verticalAlign=middle;whiteSpace=wrap;rounded=0;fontSize=3;fontColor=#000000;container=0;" parent="YbWxmgszaFembR20GTfz-60" vertex="1">
          <mxGeometry x="268.3" y="36.22999999999999" width="12" height="5" as="geometry" />
        </mxCell>
        <mxCell id="dPUykWXNvH8D_2w4ptwh-173" value="8" style="text;html=1;align=center;verticalAlign=middle;whiteSpace=wrap;rounded=0;fontSize=3;fontColor=#000000;container=0;" parent="YbWxmgszaFembR20GTfz-60" vertex="1">
          <mxGeometry x="281.3" y="36.22999999999999" width="12" height="5" as="geometry" />
        </mxCell>
        <mxCell id="dPUykWXNvH8D_2w4ptwh-174" value="10" style="text;html=1;align=center;verticalAlign=middle;whiteSpace=wrap;rounded=0;fontSize=3;fontColor=#000000;container=0;" parent="YbWxmgszaFembR20GTfz-60" vertex="1">
          <mxGeometry x="294.3" y="36.22999999999999" width="12" height="5" as="geometry" />
        </mxCell>
        <mxCell id="dPUykWXNvH8D_2w4ptwh-175" value="12" style="text;html=1;align=center;verticalAlign=middle;whiteSpace=wrap;rounded=0;fontSize=3;fontColor=#000000;container=0;" parent="YbWxmgszaFembR20GTfz-60" vertex="1">
          <mxGeometry x="307.3" y="36.22999999999999" width="12" height="5" as="geometry" />
        </mxCell>
        <mxCell id="dPUykWXNvH8D_2w4ptwh-176" value="1" style="text;html=1;align=center;verticalAlign=middle;whiteSpace=wrap;rounded=0;fontSize=3;fontColor=#000000;container=0;" parent="YbWxmgszaFembR20GTfz-60" vertex="1">
          <mxGeometry x="242.3" y="3.230000000000004" width="12" height="5" as="geometry" />
        </mxCell>
        <mxCell id="dPUykWXNvH8D_2w4ptwh-177" value="3" style="text;html=1;align=center;verticalAlign=middle;whiteSpace=wrap;rounded=0;fontSize=3;fontColor=#000000;container=0;" parent="YbWxmgszaFembR20GTfz-60" vertex="1">
          <mxGeometry x="255.3" y="3.230000000000004" width="12" height="5" as="geometry" />
        </mxCell>
        <mxCell id="dPUykWXNvH8D_2w4ptwh-178" value="5" style="text;html=1;align=center;verticalAlign=middle;whiteSpace=wrap;rounded=0;fontSize=3;fontColor=#000000;container=0;" parent="YbWxmgszaFembR20GTfz-60" vertex="1">
          <mxGeometry x="268.3" y="3.230000000000004" width="12" height="5" as="geometry" />
        </mxCell>
        <mxCell id="dPUykWXNvH8D_2w4ptwh-179" value="7" style="text;html=1;align=center;verticalAlign=middle;whiteSpace=wrap;rounded=0;fontSize=3;fontColor=#000000;container=0;" parent="YbWxmgszaFembR20GTfz-60" vertex="1">
          <mxGeometry x="281.3" y="3.230000000000004" width="12" height="5" as="geometry" />
        </mxCell>
        <mxCell id="dPUykWXNvH8D_2w4ptwh-180" value="9" style="text;html=1;align=center;verticalAlign=middle;whiteSpace=wrap;rounded=0;fontSize=3;fontColor=#000000;container=0;" parent="YbWxmgszaFembR20GTfz-60" vertex="1">
          <mxGeometry x="294.3" y="3.230000000000004" width="12" height="5" as="geometry" />
        </mxCell>
        <mxCell id="dPUykWXNvH8D_2w4ptwh-181" value="11" style="text;html=1;align=center;verticalAlign=middle;whiteSpace=wrap;rounded=0;fontSize=3;fontColor=#000000;container=0;" parent="YbWxmgszaFembR20GTfz-60" vertex="1">
          <mxGeometry x="307.3" y="3.230000000000004" width="12" height="5" as="geometry" />
        </mxCell>
        <mxCell id="dPUykWXNvH8D_2w4ptwh-1" value="" style="rounded=0;whiteSpace=wrap;html=1;strokeColor=#000000;fillColor=#BFBFBF;fontColor=#ffffff;strokeWidth=0.1;fontSize=3;fontFamily=Teko Light;align=center;verticalAlign=middle;container=0;" parent="YbWxmgszaFembR20GTfz-60" vertex="1">
          <mxGeometry x="321.3" y="8.230000000000004" width="81" height="28" as="geometry" />
        </mxCell>
        <mxCell id="dPUykWXNvH8D_2w4ptwh-82" value="" style="rounded=0;whiteSpace=wrap;html=1;strokeColor=none;fillColor=#222222;fontColor=#ffffff;strokeWidth=0.1;fontSize=3;fontFamily=Teko Light;container=0;rotation=-180;" parent="YbWxmgszaFembR20GTfz-60" vertex="1">
          <mxGeometry x="349.3" y="30.22999999999999" width="12" height="5" as="geometry" />
        </mxCell>
        <mxCell id="dPUykWXNvH8D_2w4ptwh-83" value="" style="rounded=0;whiteSpace=wrap;html=1;strokeColor=none;fillColor=#000000;fontColor=#ffffff;strokeWidth=0.1;fontSize=3;fontFamily=Teko Light;container=0;rotation=-180;" parent="YbWxmgszaFembR20GTfz-60" vertex="1">
          <mxGeometry x="349.3" y="24.22999999999999" width="12" height="7" as="geometry" />
        </mxCell>
        <mxCell id="dPUykWXNvH8D_2w4ptwh-84" value="" style="rounded=0;whiteSpace=wrap;html=1;strokeColor=none;fillColor=#000000;fontColor=#ffffff;strokeWidth=0.1;fontSize=3;fontFamily=Teko Light;container=0;rotation=-180;" parent="YbWxmgszaFembR20GTfz-60" vertex="1">
          <mxGeometry x="352.8" y="30.22999999999999" width="5" height="4" as="geometry" />
        </mxCell>
        <mxCell id="dPUykWXNvH8D_2w4ptwh-85" value="" style="rounded=0;whiteSpace=wrap;html=1;strokeColor=none;fillColor=#60a917;fontColor=#ffffff;strokeWidth=0.1;fontSize=3;fontFamily=Teko Light;container=0;rotation=-180;" parent="YbWxmgszaFembR20GTfz-60" vertex="1">
          <mxGeometry x="358.3" y="32.22999999999999" width="3" height="2" as="geometry" />
        </mxCell>
        <mxCell id="dPUykWXNvH8D_2w4ptwh-86" value="" style="rounded=0;whiteSpace=wrap;html=1;strokeColor=none;fillColor=#e3c800;fontColor=#000000;strokeWidth=0.1;fontSize=3;fontFamily=Teko Light;container=0;rotation=-180;" parent="YbWxmgszaFembR20GTfz-60" vertex="1">
          <mxGeometry x="349.3" y="32.22999999999999" width="3" height="2" as="geometry" />
        </mxCell>
        <mxCell id="dPUykWXNvH8D_2w4ptwh-37" value="" style="rounded=0;whiteSpace=wrap;html=1;strokeColor=none;fillColor=#222222;fontColor=#ffffff;strokeWidth=0.1;fontSize=3;fontFamily=Teko Light;container=0;" parent="YbWxmgszaFembR20GTfz-60" vertex="1">
          <mxGeometry x="323.29857142857145" y="9.227576744186067" width="12" height="5" as="geometry" />
        </mxCell>
        <mxCell id="dPUykWXNvH8D_2w4ptwh-10" value="" style="rounded=0;whiteSpace=wrap;html=1;strokeColor=none;fillColor=#000000;fontColor=#ffffff;strokeWidth=0.1;fontSize=3;fontFamily=Teko Light;container=0;" parent="YbWxmgszaFembR20GTfz-60" vertex="1">
          <mxGeometry x="323.2971428571429" y="13.231074995060638" width="12" height="7" as="geometry" />
        </mxCell>
        <mxCell id="dPUykWXNvH8D_2w4ptwh-11" value="" style="rounded=0;whiteSpace=wrap;html=1;strokeColor=none;fillColor=#000000;fontColor=#ffffff;strokeWidth=0.1;fontSize=3;fontFamily=Teko Light;container=0;" parent="YbWxmgszaFembR20GTfz-60" vertex="1">
          <mxGeometry x="326.8" y="10.230000000000004" width="5" height="4" as="geometry" />
        </mxCell>
        <mxCell id="dPUykWXNvH8D_2w4ptwh-18" value="" style="rounded=0;whiteSpace=wrap;html=1;strokeColor=none;fillColor=#60a917;fontColor=#ffffff;strokeWidth=0.1;fontSize=3;fontFamily=Teko Light;container=0;" parent="YbWxmgszaFembR20GTfz-60" vertex="1">
          <mxGeometry x="323.3" y="10.730000000000004" width="3" height="2" as="geometry" />
        </mxCell>
        <mxCell id="dPUykWXNvH8D_2w4ptwh-19" value="" style="rounded=0;whiteSpace=wrap;html=1;strokeColor=none;fillColor=#e3c800;fontColor=#000000;strokeWidth=0.1;fontSize=3;fontFamily=Teko Light;container=0;" parent="YbWxmgszaFembR20GTfz-60" vertex="1">
          <mxGeometry x="332.3" y="10.730000000000004" width="3" height="2" as="geometry" />
        </mxCell>
        <mxCell id="dPUykWXNvH8D_2w4ptwh-40" value="" style="rounded=0;whiteSpace=wrap;html=1;strokeColor=none;fillColor=#222222;fontColor=#ffffff;strokeWidth=0.1;fontSize=3;fontFamily=Teko Light;container=0;" parent="YbWxmgszaFembR20GTfz-60" vertex="1">
          <mxGeometry x="336.29857142857145" y="9.227576744186067" width="12" height="5" as="geometry" />
        </mxCell>
        <mxCell id="dPUykWXNvH8D_2w4ptwh-41" value="" style="rounded=0;whiteSpace=wrap;html=1;strokeColor=none;fillColor=#000000;fontColor=#ffffff;strokeWidth=0.1;fontSize=3;fontFamily=Teko Light;container=0;" parent="YbWxmgszaFembR20GTfz-60" vertex="1">
          <mxGeometry x="336.2971428571429" y="13.231074995060638" width="12" height="7" as="geometry" />
        </mxCell>
        <mxCell id="dPUykWXNvH8D_2w4ptwh-42" value="" style="rounded=0;whiteSpace=wrap;html=1;strokeColor=none;fillColor=#000000;fontColor=#ffffff;strokeWidth=0.1;fontSize=3;fontFamily=Teko Light;container=0;" parent="YbWxmgszaFembR20GTfz-60" vertex="1">
          <mxGeometry x="339.8" y="10.230000000000004" width="5" height="4" as="geometry" />
        </mxCell>
        <mxCell id="dPUykWXNvH8D_2w4ptwh-43" value="" style="rounded=0;whiteSpace=wrap;html=1;strokeColor=none;fillColor=#60a917;fontColor=#ffffff;strokeWidth=0.1;fontSize=3;fontFamily=Teko Light;container=0;" parent="YbWxmgszaFembR20GTfz-60" vertex="1">
          <mxGeometry x="336.3" y="10.730000000000004" width="3" height="2" as="geometry" />
        </mxCell>
        <mxCell id="dPUykWXNvH8D_2w4ptwh-44" value="" style="rounded=0;whiteSpace=wrap;html=1;strokeColor=none;fillColor=#e3c800;fontColor=#000000;strokeWidth=0.1;fontSize=3;fontFamily=Teko Light;container=0;" parent="YbWxmgszaFembR20GTfz-60" vertex="1">
          <mxGeometry x="345.3" y="10.730000000000004" width="3" height="2" as="geometry" />
        </mxCell>
        <mxCell id="dPUykWXNvH8D_2w4ptwh-46" value="" style="rounded=0;whiteSpace=wrap;html=1;strokeColor=none;fillColor=#222222;fontColor=#ffffff;strokeWidth=0.1;fontSize=3;fontFamily=Teko Light;container=0;" parent="YbWxmgszaFembR20GTfz-60" vertex="1">
          <mxGeometry x="349.29857142857145" y="9.227576744186067" width="12" height="5" as="geometry" />
        </mxCell>
        <mxCell id="dPUykWXNvH8D_2w4ptwh-47" value="" style="rounded=0;whiteSpace=wrap;html=1;strokeColor=none;fillColor=#000000;fontColor=#ffffff;strokeWidth=0.1;fontSize=3;fontFamily=Teko Light;container=0;" parent="YbWxmgszaFembR20GTfz-60" vertex="1">
          <mxGeometry x="349.2971428571429" y="13.231074995060638" width="12" height="7" as="geometry" />
        </mxCell>
        <mxCell id="dPUykWXNvH8D_2w4ptwh-48" value="" style="rounded=0;whiteSpace=wrap;html=1;strokeColor=none;fillColor=#000000;fontColor=#ffffff;strokeWidth=0.1;fontSize=3;fontFamily=Teko Light;container=0;" parent="YbWxmgszaFembR20GTfz-60" vertex="1">
          <mxGeometry x="352.8" y="10.230000000000004" width="5" height="4" as="geometry" />
        </mxCell>
        <mxCell id="dPUykWXNvH8D_2w4ptwh-49" value="" style="rounded=0;whiteSpace=wrap;html=1;strokeColor=none;fillColor=#60a917;fontColor=#ffffff;strokeWidth=0.1;fontSize=3;fontFamily=Teko Light;container=0;" parent="YbWxmgszaFembR20GTfz-60" vertex="1">
          <mxGeometry x="349.3" y="10.730000000000004" width="3" height="2" as="geometry" />
        </mxCell>
        <mxCell id="dPUykWXNvH8D_2w4ptwh-50" value="" style="rounded=0;whiteSpace=wrap;html=1;strokeColor=none;fillColor=#e3c800;fontColor=#000000;strokeWidth=0.1;fontSize=3;fontFamily=Teko Light;container=0;" parent="YbWxmgszaFembR20GTfz-60" vertex="1">
          <mxGeometry x="358.3" y="10.730000000000004" width="3" height="2" as="geometry" />
        </mxCell>
        <mxCell id="dPUykWXNvH8D_2w4ptwh-52" value="" style="rounded=0;whiteSpace=wrap;html=1;strokeColor=none;fillColor=#222222;fontColor=#ffffff;strokeWidth=0.1;fontSize=3;fontFamily=Teko Light;container=0;" parent="YbWxmgszaFembR20GTfz-60" vertex="1">
          <mxGeometry x="362.29857142857145" y="9.227576744186067" width="12" height="5" as="geometry" />
        </mxCell>
        <mxCell id="dPUykWXNvH8D_2w4ptwh-53" value="" style="rounded=0;whiteSpace=wrap;html=1;strokeColor=none;fillColor=#000000;fontColor=#ffffff;strokeWidth=0.1;fontSize=3;fontFamily=Teko Light;container=0;" parent="YbWxmgszaFembR20GTfz-60" vertex="1">
          <mxGeometry x="362.2971428571429" y="13.231074995060638" width="12" height="7" as="geometry" />
        </mxCell>
        <mxCell id="dPUykWXNvH8D_2w4ptwh-54" value="" style="rounded=0;whiteSpace=wrap;html=1;strokeColor=none;fillColor=#000000;fontColor=#ffffff;strokeWidth=0.1;fontSize=3;fontFamily=Teko Light;container=0;" parent="YbWxmgszaFembR20GTfz-60" vertex="1">
          <mxGeometry x="365.8" y="10.230000000000004" width="5" height="4" as="geometry" />
        </mxCell>
        <mxCell id="dPUykWXNvH8D_2w4ptwh-55" value="" style="rounded=0;whiteSpace=wrap;html=1;strokeColor=none;fillColor=#60a917;fontColor=#ffffff;strokeWidth=0.1;fontSize=3;fontFamily=Teko Light;container=0;" parent="YbWxmgszaFembR20GTfz-60" vertex="1">
          <mxGeometry x="362.3" y="10.730000000000004" width="3" height="2" as="geometry" />
        </mxCell>
        <mxCell id="dPUykWXNvH8D_2w4ptwh-56" value="" style="rounded=0;whiteSpace=wrap;html=1;strokeColor=none;fillColor=#e3c800;fontColor=#000000;strokeWidth=0.1;fontSize=3;fontFamily=Teko Light;container=0;" parent="YbWxmgszaFembR20GTfz-60" vertex="1">
          <mxGeometry x="371.3" y="10.730000000000004" width="3" height="2" as="geometry" />
        </mxCell>
        <mxCell id="dPUykWXNvH8D_2w4ptwh-58" value="" style="rounded=0;whiteSpace=wrap;html=1;strokeColor=none;fillColor=#222222;fontColor=#ffffff;strokeWidth=0.1;fontSize=3;fontFamily=Teko Light;container=0;" parent="YbWxmgszaFembR20GTfz-60" vertex="1">
          <mxGeometry x="388.29857142857145" y="9.227576744186067" width="12" height="5" as="geometry" />
        </mxCell>
        <mxCell id="dPUykWXNvH8D_2w4ptwh-59" value="" style="rounded=0;whiteSpace=wrap;html=1;strokeColor=none;fillColor=#000000;fontColor=#ffffff;strokeWidth=0.1;fontSize=3;fontFamily=Teko Light;container=0;" parent="YbWxmgszaFembR20GTfz-60" vertex="1">
          <mxGeometry x="388.2971428571429" y="13.231074995060638" width="12" height="7" as="geometry" />
        </mxCell>
        <mxCell id="dPUykWXNvH8D_2w4ptwh-60" value="" style="rounded=0;whiteSpace=wrap;html=1;strokeColor=none;fillColor=#000000;fontColor=#ffffff;strokeWidth=0.1;fontSize=3;fontFamily=Teko Light;container=0;" parent="YbWxmgszaFembR20GTfz-60" vertex="1">
          <mxGeometry x="391.8" y="10.230000000000004" width="5" height="4" as="geometry" />
        </mxCell>
        <mxCell id="dPUykWXNvH8D_2w4ptwh-61" value="" style="rounded=0;whiteSpace=wrap;html=1;strokeColor=none;fillColor=#60a917;fontColor=#ffffff;strokeWidth=0.1;fontSize=3;fontFamily=Teko Light;container=0;" parent="YbWxmgszaFembR20GTfz-60" vertex="1">
          <mxGeometry x="388.3" y="10.730000000000004" width="3" height="2" as="geometry" />
        </mxCell>
        <mxCell id="dPUykWXNvH8D_2w4ptwh-62" value="" style="rounded=0;whiteSpace=wrap;html=1;strokeColor=none;fillColor=#e3c800;fontColor=#000000;strokeWidth=0.1;fontSize=3;fontFamily=Teko Light;container=0;" parent="YbWxmgszaFembR20GTfz-60" vertex="1">
          <mxGeometry x="397.3" y="10.730000000000004" width="3" height="2" as="geometry" />
        </mxCell>
        <mxCell id="dPUykWXNvH8D_2w4ptwh-64" value="" style="rounded=0;whiteSpace=wrap;html=1;strokeColor=none;fillColor=#222222;fontColor=#ffffff;strokeWidth=0.1;fontSize=3;fontFamily=Teko Light;container=0;" parent="YbWxmgszaFembR20GTfz-60" vertex="1">
          <mxGeometry x="375.29857142857145" y="9.227576744186067" width="12" height="5" as="geometry" />
        </mxCell>
        <mxCell id="dPUykWXNvH8D_2w4ptwh-65" value="" style="rounded=0;whiteSpace=wrap;html=1;strokeColor=none;fillColor=#000000;fontColor=#ffffff;strokeWidth=0.1;fontSize=3;fontFamily=Teko Light;container=0;" parent="YbWxmgszaFembR20GTfz-60" vertex="1">
          <mxGeometry x="375.2971428571429" y="13.231074995060638" width="12" height="7" as="geometry" />
        </mxCell>
        <mxCell id="dPUykWXNvH8D_2w4ptwh-66" value="" style="rounded=0;whiteSpace=wrap;html=1;strokeColor=none;fillColor=#000000;fontColor=#ffffff;strokeWidth=0.1;fontSize=3;fontFamily=Teko Light;container=0;" parent="YbWxmgszaFembR20GTfz-60" vertex="1">
          <mxGeometry x="378.8" y="10.230000000000004" width="5" height="4" as="geometry" />
        </mxCell>
        <mxCell id="dPUykWXNvH8D_2w4ptwh-67" value="" style="rounded=0;whiteSpace=wrap;html=1;strokeColor=none;fillColor=#60a917;fontColor=#ffffff;strokeWidth=0.1;fontSize=3;fontFamily=Teko Light;container=0;" parent="YbWxmgszaFembR20GTfz-60" vertex="1">
          <mxGeometry x="375.3" y="10.730000000000004" width="3" height="2" as="geometry" />
        </mxCell>
        <mxCell id="dPUykWXNvH8D_2w4ptwh-68" value="" style="rounded=0;whiteSpace=wrap;html=1;strokeColor=none;fillColor=#e3c800;fontColor=#000000;strokeWidth=0.1;fontSize=3;fontFamily=Teko Light;container=0;" parent="YbWxmgszaFembR20GTfz-60" vertex="1">
          <mxGeometry x="384.3" y="10.730000000000004" width="3" height="2" as="geometry" />
        </mxCell>
        <mxCell id="dPUykWXNvH8D_2w4ptwh-70" value="" style="rounded=0;whiteSpace=wrap;html=1;strokeColor=none;fillColor=#222222;fontColor=#ffffff;strokeWidth=0.1;fontSize=3;fontFamily=Teko Light;container=0;rotation=-180;" parent="YbWxmgszaFembR20GTfz-60" vertex="1">
          <mxGeometry x="323.2971428571429" y="30.227576744186052" width="12" height="5" as="geometry" />
        </mxCell>
        <mxCell id="dPUykWXNvH8D_2w4ptwh-71" value="" style="rounded=0;whiteSpace=wrap;html=1;strokeColor=none;fillColor=#000000;fontColor=#ffffff;strokeWidth=0.1;fontSize=3;fontFamily=Teko Light;container=0;rotation=-180;" parent="YbWxmgszaFembR20GTfz-60" vertex="1">
          <mxGeometry x="323.2971428571429" y="24.227576744186052" width="12" height="7" as="geometry" />
        </mxCell>
        <mxCell id="dPUykWXNvH8D_2w4ptwh-72" value="" style="rounded=0;whiteSpace=wrap;html=1;strokeColor=none;fillColor=#000000;fontColor=#ffffff;strokeWidth=0.1;fontSize=3;fontFamily=Teko Light;container=0;rotation=-180;" parent="YbWxmgszaFembR20GTfz-60" vertex="1">
          <mxGeometry x="326.7971428571429" y="30.227576744186052" width="5" height="4" as="geometry" />
        </mxCell>
        <mxCell id="dPUykWXNvH8D_2w4ptwh-73" value="" style="rounded=0;whiteSpace=wrap;html=1;strokeColor=none;fillColor=#60a917;fontColor=#ffffff;strokeWidth=0.1;fontSize=3;fontFamily=Teko Light;container=0;rotation=-180;" parent="YbWxmgszaFembR20GTfz-60" vertex="1">
          <mxGeometry x="332.2971428571429" y="32.22757674418605" width="3" height="2" as="geometry" />
        </mxCell>
        <mxCell id="dPUykWXNvH8D_2w4ptwh-74" value="" style="rounded=0;whiteSpace=wrap;html=1;strokeColor=none;fillColor=#e3c800;fontColor=#000000;strokeWidth=0.1;fontSize=3;fontFamily=Teko Light;container=0;rotation=-180;" parent="YbWxmgszaFembR20GTfz-60" vertex="1">
          <mxGeometry x="323.2971428571429" y="32.22757674418605" width="3" height="2" as="geometry" />
        </mxCell>
        <mxCell id="dPUykWXNvH8D_2w4ptwh-76" value="" style="rounded=0;whiteSpace=wrap;html=1;strokeColor=none;fillColor=#222222;fontColor=#ffffff;strokeWidth=0.1;fontSize=3;fontFamily=Teko Light;container=0;rotation=-180;" parent="YbWxmgszaFembR20GTfz-60" vertex="1">
          <mxGeometry x="336.3" y="30.22999999999999" width="12" height="5" as="geometry" />
        </mxCell>
        <mxCell id="dPUykWXNvH8D_2w4ptwh-77" value="" style="rounded=0;whiteSpace=wrap;html=1;strokeColor=none;fillColor=#000000;fontColor=#ffffff;strokeWidth=0.1;fontSize=3;fontFamily=Teko Light;container=0;rotation=-180;" parent="YbWxmgszaFembR20GTfz-60" vertex="1">
          <mxGeometry x="336.3" y="24.22999999999999" width="12" height="7" as="geometry" />
        </mxCell>
        <mxCell id="dPUykWXNvH8D_2w4ptwh-78" value="" style="rounded=0;whiteSpace=wrap;html=1;strokeColor=none;fillColor=#000000;fontColor=#ffffff;strokeWidth=0.1;fontSize=3;fontFamily=Teko Light;container=0;rotation=-180;" parent="YbWxmgszaFembR20GTfz-60" vertex="1">
          <mxGeometry x="339.8" y="30.22999999999999" width="5" height="4" as="geometry" />
        </mxCell>
        <mxCell id="dPUykWXNvH8D_2w4ptwh-79" value="" style="rounded=0;whiteSpace=wrap;html=1;strokeColor=none;fillColor=#60a917;fontColor=#ffffff;strokeWidth=0.1;fontSize=3;fontFamily=Teko Light;container=0;rotation=-180;" parent="YbWxmgszaFembR20GTfz-60" vertex="1">
          <mxGeometry x="345.3" y="32.22999999999999" width="3" height="2" as="geometry" />
        </mxCell>
        <mxCell id="dPUykWXNvH8D_2w4ptwh-80" value="" style="rounded=0;whiteSpace=wrap;html=1;strokeColor=none;fillColor=#e3c800;fontColor=#000000;strokeWidth=0.1;fontSize=3;fontFamily=Teko Light;container=0;rotation=-180;" parent="YbWxmgszaFembR20GTfz-60" vertex="1">
          <mxGeometry x="336.3" y="32.22999999999999" width="3" height="2" as="geometry" />
        </mxCell>
        <mxCell id="dPUykWXNvH8D_2w4ptwh-88" value="" style="rounded=0;whiteSpace=wrap;html=1;strokeColor=none;fillColor=#222222;fontColor=#ffffff;strokeWidth=0.1;fontSize=3;fontFamily=Teko Light;container=0;rotation=-180;" parent="YbWxmgszaFembR20GTfz-60" vertex="1">
          <mxGeometry x="362.3" y="30.22999999999999" width="12" height="5" as="geometry" />
        </mxCell>
        <mxCell id="dPUykWXNvH8D_2w4ptwh-89" value="" style="rounded=0;whiteSpace=wrap;html=1;strokeColor=none;fillColor=#000000;fontColor=#ffffff;strokeWidth=0.1;fontSize=3;fontFamily=Teko Light;container=0;rotation=-180;" parent="YbWxmgszaFembR20GTfz-60" vertex="1">
          <mxGeometry x="362.3" y="24.22999999999999" width="12" height="7" as="geometry" />
        </mxCell>
        <mxCell id="dPUykWXNvH8D_2w4ptwh-90" value="" style="rounded=0;whiteSpace=wrap;html=1;strokeColor=none;fillColor=#000000;fontColor=#ffffff;strokeWidth=0.1;fontSize=3;fontFamily=Teko Light;container=0;rotation=-180;" parent="YbWxmgszaFembR20GTfz-60" vertex="1">
          <mxGeometry x="365.8" y="30.22999999999999" width="5" height="4" as="geometry" />
        </mxCell>
        <mxCell id="dPUykWXNvH8D_2w4ptwh-91" value="" style="rounded=0;whiteSpace=wrap;html=1;strokeColor=none;fillColor=#60a917;fontColor=#ffffff;strokeWidth=0.1;fontSize=3;fontFamily=Teko Light;container=0;rotation=-180;" parent="YbWxmgszaFembR20GTfz-60" vertex="1">
          <mxGeometry x="371.3" y="32.22999999999999" width="3" height="2" as="geometry" />
        </mxCell>
        <mxCell id="dPUykWXNvH8D_2w4ptwh-92" value="" style="rounded=0;whiteSpace=wrap;html=1;strokeColor=none;fillColor=#e3c800;fontColor=#000000;strokeWidth=0.1;fontSize=3;fontFamily=Teko Light;container=0;rotation=-180;" parent="YbWxmgszaFembR20GTfz-60" vertex="1">
          <mxGeometry x="362.3" y="32.22999999999999" width="3" height="2" as="geometry" />
        </mxCell>
        <mxCell id="dPUykWXNvH8D_2w4ptwh-94" value="" style="rounded=0;whiteSpace=wrap;html=1;strokeColor=none;fillColor=#222222;fontColor=#ffffff;strokeWidth=0.1;fontSize=3;fontFamily=Teko Light;container=0;rotation=-180;" parent="YbWxmgszaFembR20GTfz-60" vertex="1">
          <mxGeometry x="388.2971428571429" y="30.22999999999999" width="12" height="5" as="geometry" />
        </mxCell>
        <mxCell id="dPUykWXNvH8D_2w4ptwh-95" value="" style="rounded=0;whiteSpace=wrap;html=1;strokeColor=none;fillColor=#000000;fontColor=#ffffff;strokeWidth=0.1;fontSize=3;fontFamily=Teko Light;container=0;rotation=-180;" parent="YbWxmgszaFembR20GTfz-60" vertex="1">
          <mxGeometry x="388.2971428571429" y="24.22999999999999" width="12" height="7" as="geometry" />
        </mxCell>
        <mxCell id="dPUykWXNvH8D_2w4ptwh-96" value="" style="rounded=0;whiteSpace=wrap;html=1;strokeColor=none;fillColor=#000000;fontColor=#ffffff;strokeWidth=0.1;fontSize=3;fontFamily=Teko Light;container=0;rotation=-180;" parent="YbWxmgszaFembR20GTfz-60" vertex="1">
          <mxGeometry x="391.7971428571429" y="30.22999999999999" width="5" height="4" as="geometry" />
        </mxCell>
        <mxCell id="dPUykWXNvH8D_2w4ptwh-97" value="" style="rounded=0;whiteSpace=wrap;html=1;strokeColor=none;fillColor=#60a917;fontColor=#ffffff;strokeWidth=0.1;fontSize=3;fontFamily=Teko Light;container=0;rotation=-180;" parent="YbWxmgszaFembR20GTfz-60" vertex="1">
          <mxGeometry x="397.2971428571429" y="32.22999999999999" width="3" height="2" as="geometry" />
        </mxCell>
        <mxCell id="dPUykWXNvH8D_2w4ptwh-98" value="" style="rounded=0;whiteSpace=wrap;html=1;strokeColor=none;fillColor=#e3c800;fontColor=#000000;strokeWidth=0.1;fontSize=3;fontFamily=Teko Light;container=0;rotation=-180;" parent="YbWxmgszaFembR20GTfz-60" vertex="1">
          <mxGeometry x="388.2971428571429" y="32.22999999999999" width="3" height="2" as="geometry" />
        </mxCell>
        <mxCell id="dPUykWXNvH8D_2w4ptwh-100" value="" style="rounded=0;whiteSpace=wrap;html=1;strokeColor=none;fillColor=#222222;fontColor=#ffffff;strokeWidth=0.1;fontSize=3;fontFamily=Teko Light;container=0;rotation=-180;" parent="YbWxmgszaFembR20GTfz-60" vertex="1">
          <mxGeometry x="375.3" y="30.22999999999999" width="12" height="5" as="geometry" />
        </mxCell>
        <mxCell id="dPUykWXNvH8D_2w4ptwh-101" value="" style="rounded=0;whiteSpace=wrap;html=1;strokeColor=none;fillColor=#000000;fontColor=#ffffff;strokeWidth=0.1;fontSize=3;fontFamily=Teko Light;container=0;rotation=-180;" parent="YbWxmgszaFembR20GTfz-60" vertex="1">
          <mxGeometry x="375.3" y="24.22999999999999" width="12" height="7" as="geometry" />
        </mxCell>
        <mxCell id="dPUykWXNvH8D_2w4ptwh-102" value="" style="rounded=0;whiteSpace=wrap;html=1;strokeColor=none;fillColor=#000000;fontColor=#ffffff;strokeWidth=0.1;fontSize=3;fontFamily=Teko Light;container=0;rotation=-180;" parent="YbWxmgszaFembR20GTfz-60" vertex="1">
          <mxGeometry x="378.8" y="30.22999999999999" width="5" height="4" as="geometry" />
        </mxCell>
        <mxCell id="dPUykWXNvH8D_2w4ptwh-103" value="" style="rounded=0;whiteSpace=wrap;html=1;strokeColor=none;fillColor=#60a917;fontColor=#ffffff;strokeWidth=0.1;fontSize=3;fontFamily=Teko Light;container=0;rotation=-180;" parent="YbWxmgszaFembR20GTfz-60" vertex="1">
          <mxGeometry x="384.3" y="32.22999999999999" width="3" height="2" as="geometry" />
        </mxCell>
        <mxCell id="dPUykWXNvH8D_2w4ptwh-104" value="" style="rounded=0;whiteSpace=wrap;html=1;strokeColor=none;fillColor=#e3c800;fontColor=#000000;strokeWidth=0.1;fontSize=3;fontFamily=Teko Light;container=0;rotation=-180;" parent="YbWxmgszaFembR20GTfz-60" vertex="1">
          <mxGeometry x="375.3" y="32.22999999999999" width="3" height="2" as="geometry" />
        </mxCell>
        <mxCell id="dPUykWXNvH8D_2w4ptwh-244" value="14" style="text;html=1;align=center;verticalAlign=middle;whiteSpace=wrap;rounded=0;fontSize=3;fontColor=#000000;container=0;" parent="YbWxmgszaFembR20GTfz-60" vertex="1">
          <mxGeometry x="323.3" y="36.22999999999999" width="12" height="5" as="geometry" />
        </mxCell>
        <mxCell id="dPUykWXNvH8D_2w4ptwh-245" value="16" style="text;html=1;align=center;verticalAlign=middle;whiteSpace=wrap;rounded=0;fontSize=3;fontColor=#000000;container=0;" parent="YbWxmgszaFembR20GTfz-60" vertex="1">
          <mxGeometry x="336.3" y="36.22999999999999" width="12" height="5" as="geometry" />
        </mxCell>
        <mxCell id="dPUykWXNvH8D_2w4ptwh-246" value="18" style="text;html=1;align=center;verticalAlign=middle;whiteSpace=wrap;rounded=0;fontSize=3;fontColor=#000000;container=0;" parent="YbWxmgszaFembR20GTfz-60" vertex="1">
          <mxGeometry x="349.3" y="36.22999999999999" width="12" height="5" as="geometry" />
        </mxCell>
        <mxCell id="dPUykWXNvH8D_2w4ptwh-247" value="20" style="text;html=1;align=center;verticalAlign=middle;whiteSpace=wrap;rounded=0;fontSize=3;fontColor=#000000;container=0;" parent="YbWxmgszaFembR20GTfz-60" vertex="1">
          <mxGeometry x="362.3" y="36.22999999999999" width="12" height="5" as="geometry" />
        </mxCell>
        <mxCell id="dPUykWXNvH8D_2w4ptwh-248" value="22" style="text;html=1;align=center;verticalAlign=middle;whiteSpace=wrap;rounded=0;fontSize=3;fontColor=#000000;container=0;" parent="YbWxmgszaFembR20GTfz-60" vertex="1">
          <mxGeometry x="375.3" y="36.22999999999999" width="12" height="5" as="geometry" />
        </mxCell>
        <mxCell id="dPUykWXNvH8D_2w4ptwh-249" value="24" style="text;html=1;align=center;verticalAlign=middle;whiteSpace=wrap;rounded=0;fontSize=3;fontColor=#000000;container=0;" parent="YbWxmgszaFembR20GTfz-60" vertex="1">
          <mxGeometry x="388.3" y="36.22999999999999" width="12" height="5" as="geometry" />
        </mxCell>
        <mxCell id="dPUykWXNvH8D_2w4ptwh-250" value="13" style="text;html=1;align=center;verticalAlign=middle;whiteSpace=wrap;rounded=0;fontSize=3;fontColor=#000000;container=0;" parent="YbWxmgszaFembR20GTfz-60" vertex="1">
          <mxGeometry x="323.3" y="3.2299999999999898" width="12" height="5" as="geometry" />
        </mxCell>
        <mxCell id="dPUykWXNvH8D_2w4ptwh-251" value="15" style="text;html=1;align=center;verticalAlign=middle;whiteSpace=wrap;rounded=0;fontSize=3;fontColor=#000000;container=0;" parent="YbWxmgszaFembR20GTfz-60" vertex="1">
          <mxGeometry x="336.3" y="3.2299999999999898" width="12" height="5" as="geometry" />
        </mxCell>
        <mxCell id="dPUykWXNvH8D_2w4ptwh-252" value="17" style="text;html=1;align=center;verticalAlign=middle;whiteSpace=wrap;rounded=0;fontSize=3;fontColor=#000000;container=0;" parent="YbWxmgszaFembR20GTfz-60" vertex="1">
          <mxGeometry x="349.3" y="3.2299999999999898" width="12" height="5" as="geometry" />
        </mxCell>
        <mxCell id="dPUykWXNvH8D_2w4ptwh-253" value="19" style="text;html=1;align=center;verticalAlign=middle;whiteSpace=wrap;rounded=0;fontSize=3;fontColor=#000000;container=0;" parent="YbWxmgszaFembR20GTfz-60" vertex="1">
          <mxGeometry x="362.3" y="3.2299999999999898" width="12" height="5" as="geometry" />
        </mxCell>
        <mxCell id="dPUykWXNvH8D_2w4ptwh-254" value="21" style="text;html=1;align=center;verticalAlign=middle;whiteSpace=wrap;rounded=0;fontSize=3;fontColor=#000000;container=0;" parent="YbWxmgszaFembR20GTfz-60" vertex="1">
          <mxGeometry x="375.3" y="3.2299999999999898" width="12" height="5" as="geometry" />
        </mxCell>
        <mxCell id="dPUykWXNvH8D_2w4ptwh-255" value="23" style="text;html=1;align=center;verticalAlign=middle;whiteSpace=wrap;rounded=0;fontSize=3;fontColor=#000000;container=0;" parent="YbWxmgszaFembR20GTfz-60" vertex="1">
          <mxGeometry x="388.3" y="3.2299999999999898" width="12" height="5" as="geometry" />
        </mxCell>
        <mxCell id="dPUykWXNvH8D_2w4ptwh-304" value="26" style="text;html=1;align=center;verticalAlign=middle;whiteSpace=wrap;rounded=0;fontSize=3;container=0;fontColor=#000000;" parent="YbWxmgszaFembR20GTfz-60" vertex="1">
          <mxGeometry x="428.8" y="36.22999999999999" width="12" height="5" as="geometry" />
        </mxCell>
        <mxCell id="dPUykWXNvH8D_2w4ptwh-305" value="25" style="text;html=1;align=center;verticalAlign=middle;whiteSpace=wrap;rounded=0;fontSize=3;container=0;fontColor=#000000;" parent="YbWxmgszaFembR20GTfz-60" vertex="1">
          <mxGeometry x="428.8" y="3.2299999999999898" width="12" height="5" as="geometry" />
        </mxCell>
        <mxCell id="dPUykWXNvH8D_2w4ptwh-325" value="" style="ellipse;whiteSpace=wrap;html=1;aspect=fixed;fillColor=#000000;strokeWidth=0.1;strokeColor=#222222;container=0;" parent="YbWxmgszaFembR20GTfz-60" vertex="1">
          <mxGeometry x="448.5" y="39" width="2" height="2" as="geometry" />
        </mxCell>
        <mxCell id="dPUykWXNvH8D_2w4ptwh-328" value="RESET" style="text;html=1;align=left;verticalAlign=middle;whiteSpace=wrap;rounded=0;fontSize=2;container=0;fontColor=#000000;" parent="YbWxmgszaFembR20GTfz-60" vertex="1">
          <mxGeometry x="450.5" y="39" width="10" height="2" as="geometry" />
        </mxCell>
        <mxCell id="PZP4gdgeWaH-fIwLRfgN-395" value="" style="rounded=0;whiteSpace=wrap;html=1;fillColor=#000000;fontColor=#ffffff;strokeColor=none;container=0;" parent="YbWxmgszaFembR20GTfz-60" vertex="1">
          <mxGeometry x="471.6" y="3" width="4" height="6" as="geometry" />
        </mxCell>
        <mxCell id="PZP4gdgeWaH-fIwLRfgN-396" value="" style="ellipse;whiteSpace=wrap;html=1;aspect=fixed;strokeColor=none;fillColor=#000000;container=0;" parent="YbWxmgszaFembR20GTfz-60" vertex="1">
          <mxGeometry x="472.6" y="3" width="6" height="6" as="geometry" />
        </mxCell>
        <mxCell id="PZP4gdgeWaH-fIwLRfgN-397" value="" style="ellipse;whiteSpace=wrap;html=1;aspect=fixed;strokeColor=none;fillColor=#000000;container=0;" parent="YbWxmgszaFembR20GTfz-60" vertex="1">
          <mxGeometry x="468.6" y="3" width="6" height="6" as="geometry" />
        </mxCell>
        <mxCell id="PZP4gdgeWaH-fIwLRfgN-391" value="" style="rounded=0;whiteSpace=wrap;html=1;fillColor=#000000;fontColor=#ffffff;strokeColor=none;container=0;" parent="YbWxmgszaFembR20GTfz-60" vertex="1">
          <mxGeometry x="471.6" y="35.45" width="4" height="6" as="geometry" />
        </mxCell>
        <mxCell id="PZP4gdgeWaH-fIwLRfgN-392" value="" style="ellipse;whiteSpace=wrap;html=1;aspect=fixed;strokeColor=none;fillColor=#000000;container=0;" parent="YbWxmgszaFembR20GTfz-60" vertex="1">
          <mxGeometry x="472.6" y="35.45" width="6" height="6" as="geometry" />
        </mxCell>
        <mxCell id="PZP4gdgeWaH-fIwLRfgN-393" value="" style="ellipse;whiteSpace=wrap;html=1;aspect=fixed;strokeColor=none;fillColor=#000000;container=0;" parent="YbWxmgszaFembR20GTfz-60" vertex="1">
          <mxGeometry x="468.6" y="35.45" width="6" height="6" as="geometry" />
        </mxCell>
        <mxCell id="PZP4gdgeWaH-fIwLRfgN-385" value="" style="rounded=0;whiteSpace=wrap;html=1;fillColor=#000000;fontColor=#ffffff;strokeColor=none;container=0;" parent="YbWxmgszaFembR20GTfz-60" vertex="1">
          <mxGeometry x="7" y="3" width="4" height="6" as="geometry" />
        </mxCell>
        <mxCell id="PZP4gdgeWaH-fIwLRfgN-386" value="" style="ellipse;whiteSpace=wrap;html=1;aspect=fixed;strokeColor=none;fillColor=#000000;container=0;" parent="YbWxmgszaFembR20GTfz-60" vertex="1">
          <mxGeometry x="8" y="3" width="6" height="6" as="geometry" />
        </mxCell>
        <mxCell id="PZP4gdgeWaH-fIwLRfgN-387" value="" style="ellipse;whiteSpace=wrap;html=1;aspect=fixed;strokeColor=none;fillColor=#000000;container=0;" parent="YbWxmgszaFembR20GTfz-60" vertex="1">
          <mxGeometry x="4" y="3" width="6" height="6" as="geometry" />
        </mxCell>
        <mxCell id="PZP4gdgeWaH-fIwLRfgN-376" value="" style="rounded=0;whiteSpace=wrap;html=1;fillColor=#000000;fontColor=#ffffff;strokeColor=none;container=0;" parent="YbWxmgszaFembR20GTfz-60" vertex="1">
          <mxGeometry x="7" y="35.45" width="4" height="6" as="geometry" />
        </mxCell>
        <mxCell id="PZP4gdgeWaH-fIwLRfgN-381" value="" style="ellipse;whiteSpace=wrap;html=1;aspect=fixed;strokeColor=none;fillColor=#000000;container=0;" parent="YbWxmgszaFembR20GTfz-60" vertex="1">
          <mxGeometry x="8" y="35.45" width="6" height="6" as="geometry" />
        </mxCell>
        <mxCell id="PZP4gdgeWaH-fIwLRfgN-382" value="" style="ellipse;whiteSpace=wrap;html=1;aspect=fixed;strokeColor=none;fillColor=#000000;container=0;" parent="YbWxmgszaFembR20GTfz-60" vertex="1">
          <mxGeometry x="4" y="35.45" width="6" height="6" as="geometry" />
        </mxCell>
        <mxCell id="dPUykWXNvH8D_2w4ptwh-108" value="" style="rounded=0;whiteSpace=wrap;html=1;strokeColor=#000000;fillColor=#BFBFBF;fontColor=#ffffff;strokeWidth=0.1;fontSize=3;fontFamily=Teko Light;align=center;verticalAlign=middle;container=0;" parent="YbWxmgszaFembR20GTfz-60" vertex="1">
          <mxGeometry x="240.3" y="8.230000000000004" width="81" height="28" as="geometry" />
        </mxCell>
        <mxCell id="dPUykWXNvH8D_2w4ptwh-109" value="" style="rounded=0;whiteSpace=wrap;html=1;strokeColor=none;fillColor=#222222;fontColor=#ffffff;strokeWidth=0.1;fontSize=3;fontFamily=Teko Light;container=0;rotation=-180;" parent="YbWxmgszaFembR20GTfz-60" vertex="1">
          <mxGeometry x="268.3" y="30.230000000000004" width="12" height="5" as="geometry" />
        </mxCell>
        <mxCell id="dPUykWXNvH8D_2w4ptwh-110" value="" style="rounded=0;whiteSpace=wrap;html=1;strokeColor=none;fillColor=#000000;fontColor=#ffffff;strokeWidth=0.1;fontSize=3;fontFamily=Teko Light;container=0;rotation=-180;" parent="YbWxmgszaFembR20GTfz-60" vertex="1">
          <mxGeometry x="268.3" y="24.230000000000004" width="12" height="7" as="geometry" />
        </mxCell>
        <mxCell id="dPUykWXNvH8D_2w4ptwh-111" value="" style="rounded=0;whiteSpace=wrap;html=1;strokeColor=none;fillColor=#000000;fontColor=#ffffff;strokeWidth=0.1;fontSize=3;fontFamily=Teko Light;container=0;rotation=-180;" parent="YbWxmgszaFembR20GTfz-60" vertex="1">
          <mxGeometry x="271.8" y="30.230000000000004" width="5" height="4" as="geometry" />
        </mxCell>
        <mxCell id="dPUykWXNvH8D_2w4ptwh-112" value="" style="rounded=0;whiteSpace=wrap;html=1;strokeColor=none;fillColor=#60a917;fontColor=#ffffff;strokeWidth=0.1;fontSize=3;fontFamily=Teko Light;container=0;rotation=-180;" parent="YbWxmgszaFembR20GTfz-60" vertex="1">
          <mxGeometry x="277.3" y="32.230000000000004" width="3" height="2" as="geometry" />
        </mxCell>
        <mxCell id="dPUykWXNvH8D_2w4ptwh-113" value="" style="rounded=0;whiteSpace=wrap;html=1;strokeColor=none;fillColor=#e3c800;fontColor=#000000;strokeWidth=0.1;fontSize=3;fontFamily=Teko Light;container=0;rotation=-180;" parent="YbWxmgszaFembR20GTfz-60" vertex="1">
          <mxGeometry x="268.3" y="32.230000000000004" width="3" height="2" as="geometry" />
        </mxCell>
        <mxCell id="dPUykWXNvH8D_2w4ptwh-114" value="" style="rounded=0;whiteSpace=wrap;html=1;strokeColor=none;fillColor=#222222;fontColor=#ffffff;strokeWidth=0.1;fontSize=3;fontFamily=Teko Light;container=0;" parent="YbWxmgszaFembR20GTfz-60" vertex="1">
          <mxGeometry x="242.29857142857145" y="9.227576744186067" width="12" height="5" as="geometry" />
        </mxCell>
        <mxCell id="dPUykWXNvH8D_2w4ptwh-115" value="" style="rounded=0;whiteSpace=wrap;html=1;strokeColor=none;fillColor=#000000;fontColor=#ffffff;strokeWidth=0.1;fontSize=3;fontFamily=Teko Light;container=0;" parent="YbWxmgszaFembR20GTfz-60" vertex="1">
          <mxGeometry x="242.2971428571429" y="13.231074995060638" width="12" height="7" as="geometry" />
        </mxCell>
        <mxCell id="dPUykWXNvH8D_2w4ptwh-116" value="" style="rounded=0;whiteSpace=wrap;html=1;strokeColor=none;fillColor=#000000;fontColor=#ffffff;strokeWidth=0.1;fontSize=3;fontFamily=Teko Light;container=0;" parent="YbWxmgszaFembR20GTfz-60" vertex="1">
          <mxGeometry x="245.8" y="10.230000000000004" width="5" height="4" as="geometry" />
        </mxCell>
        <mxCell id="dPUykWXNvH8D_2w4ptwh-117" value="" style="rounded=0;whiteSpace=wrap;html=1;strokeColor=none;fillColor=#60a917;fontColor=#ffffff;strokeWidth=0.1;fontSize=3;fontFamily=Teko Light;container=0;" parent="YbWxmgszaFembR20GTfz-60" vertex="1">
          <mxGeometry x="242.3" y="10.730000000000004" width="3" height="2" as="geometry" />
        </mxCell>
        <mxCell id="dPUykWXNvH8D_2w4ptwh-118" value="" style="rounded=0;whiteSpace=wrap;html=1;strokeColor=none;fillColor=#e3c800;fontColor=#000000;strokeWidth=0.1;fontSize=3;fontFamily=Teko Light;container=0;" parent="YbWxmgszaFembR20GTfz-60" vertex="1">
          <mxGeometry x="251.3" y="10.730000000000004" width="3" height="2" as="geometry" />
        </mxCell>
        <mxCell id="dPUykWXNvH8D_2w4ptwh-119" value="" style="rounded=0;whiteSpace=wrap;html=1;strokeColor=none;fillColor=#222222;fontColor=#ffffff;strokeWidth=0.1;fontSize=3;fontFamily=Teko Light;container=0;" parent="YbWxmgszaFembR20GTfz-60" vertex="1">
          <mxGeometry x="255.29857142857145" y="9.227576744186067" width="12" height="5" as="geometry" />
        </mxCell>
        <mxCell id="dPUykWXNvH8D_2w4ptwh-120" value="" style="rounded=0;whiteSpace=wrap;html=1;strokeColor=none;fillColor=#000000;fontColor=#ffffff;strokeWidth=0.1;fontSize=3;fontFamily=Teko Light;container=0;" parent="YbWxmgszaFembR20GTfz-60" vertex="1">
          <mxGeometry x="255.2971428571429" y="13.231074995060638" width="12" height="7" as="geometry" />
        </mxCell>
        <mxCell id="dPUykWXNvH8D_2w4ptwh-121" value="" style="rounded=0;whiteSpace=wrap;html=1;strokeColor=none;fillColor=#000000;fontColor=#ffffff;strokeWidth=0.1;fontSize=3;fontFamily=Teko Light;container=0;" parent="YbWxmgszaFembR20GTfz-60" vertex="1">
          <mxGeometry x="258.8" y="10.230000000000004" width="5" height="4" as="geometry" />
        </mxCell>
        <mxCell id="dPUykWXNvH8D_2w4ptwh-122" value="" style="rounded=0;whiteSpace=wrap;html=1;strokeColor=none;fillColor=#60a917;fontColor=#ffffff;strokeWidth=0.1;fontSize=3;fontFamily=Teko Light;container=0;" parent="YbWxmgszaFembR20GTfz-60" vertex="1">
          <mxGeometry x="255.3" y="10.730000000000004" width="3" height="2" as="geometry" />
        </mxCell>
        <mxCell id="dPUykWXNvH8D_2w4ptwh-123" value="" style="rounded=0;whiteSpace=wrap;html=1;strokeColor=none;fillColor=#e3c800;fontColor=#000000;strokeWidth=0.1;fontSize=3;fontFamily=Teko Light;container=0;" parent="YbWxmgszaFembR20GTfz-60" vertex="1">
          <mxGeometry x="264.3" y="10.730000000000004" width="3" height="2" as="geometry" />
        </mxCell>
        <mxCell id="dPUykWXNvH8D_2w4ptwh-124" value="" style="rounded=0;whiteSpace=wrap;html=1;strokeColor=none;fillColor=#222222;fontColor=#ffffff;strokeWidth=0.1;fontSize=3;fontFamily=Teko Light;container=0;" parent="YbWxmgszaFembR20GTfz-60" vertex="1">
          <mxGeometry x="268.29857142857145" y="9.227576744186067" width="12" height="5" as="geometry" />
        </mxCell>
        <mxCell id="dPUykWXNvH8D_2w4ptwh-125" value="" style="rounded=0;whiteSpace=wrap;html=1;strokeColor=none;fillColor=#000000;fontColor=#ffffff;strokeWidth=0.1;fontSize=3;fontFamily=Teko Light;container=0;" parent="YbWxmgszaFembR20GTfz-60" vertex="1">
          <mxGeometry x="268.2971428571429" y="13.231074995060638" width="12" height="7" as="geometry" />
        </mxCell>
        <mxCell id="dPUykWXNvH8D_2w4ptwh-126" value="" style="rounded=0;whiteSpace=wrap;html=1;strokeColor=none;fillColor=#000000;fontColor=#ffffff;strokeWidth=0.1;fontSize=3;fontFamily=Teko Light;container=0;" parent="YbWxmgszaFembR20GTfz-60" vertex="1">
          <mxGeometry x="271.8" y="10.230000000000004" width="5" height="4" as="geometry" />
        </mxCell>
        <mxCell id="dPUykWXNvH8D_2w4ptwh-127" value="" style="rounded=0;whiteSpace=wrap;html=1;strokeColor=none;fillColor=#60a917;fontColor=#ffffff;strokeWidth=0.1;fontSize=3;fontFamily=Teko Light;container=0;" parent="YbWxmgszaFembR20GTfz-60" vertex="1">
          <mxGeometry x="268.3" y="10.730000000000004" width="3" height="2" as="geometry" />
        </mxCell>
        <mxCell id="dPUykWXNvH8D_2w4ptwh-128" value="" style="rounded=0;whiteSpace=wrap;html=1;strokeColor=none;fillColor=#e3c800;fontColor=#000000;strokeWidth=0.1;fontSize=3;fontFamily=Teko Light;container=0;" parent="YbWxmgszaFembR20GTfz-60" vertex="1">
          <mxGeometry x="277.3" y="10.730000000000004" width="3" height="2" as="geometry" />
        </mxCell>
        <mxCell id="dPUykWXNvH8D_2w4ptwh-129" value="" style="rounded=0;whiteSpace=wrap;html=1;strokeColor=none;fillColor=#222222;fontColor=#ffffff;strokeWidth=0.1;fontSize=3;fontFamily=Teko Light;container=0;" parent="YbWxmgszaFembR20GTfz-60" vertex="1">
          <mxGeometry x="281.29857142857145" y="9.227576744186067" width="12" height="5" as="geometry" />
        </mxCell>
        <mxCell id="dPUykWXNvH8D_2w4ptwh-130" value="" style="rounded=0;whiteSpace=wrap;html=1;strokeColor=none;fillColor=#000000;fontColor=#ffffff;strokeWidth=0.1;fontSize=3;fontFamily=Teko Light;container=0;" parent="YbWxmgszaFembR20GTfz-60" vertex="1">
          <mxGeometry x="281.2971428571429" y="13.231074995060638" width="12" height="7" as="geometry" />
        </mxCell>
        <mxCell id="dPUykWXNvH8D_2w4ptwh-131" value="" style="rounded=0;whiteSpace=wrap;html=1;strokeColor=none;fillColor=#000000;fontColor=#ffffff;strokeWidth=0.1;fontSize=3;fontFamily=Teko Light;container=0;" parent="YbWxmgszaFembR20GTfz-60" vertex="1">
          <mxGeometry x="284.8" y="10.230000000000004" width="5" height="4" as="geometry" />
        </mxCell>
        <mxCell id="dPUykWXNvH8D_2w4ptwh-132" value="" style="rounded=0;whiteSpace=wrap;html=1;strokeColor=none;fillColor=#60a917;fontColor=#ffffff;strokeWidth=0.1;fontSize=3;fontFamily=Teko Light;container=0;" parent="YbWxmgszaFembR20GTfz-60" vertex="1">
          <mxGeometry x="281.3" y="10.730000000000004" width="3" height="2" as="geometry" />
        </mxCell>
        <mxCell id="dPUykWXNvH8D_2w4ptwh-133" value="" style="rounded=0;whiteSpace=wrap;html=1;strokeColor=none;fillColor=#e3c800;fontColor=#000000;strokeWidth=0.1;fontSize=3;fontFamily=Teko Light;container=0;" parent="YbWxmgszaFembR20GTfz-60" vertex="1">
          <mxGeometry x="290.3" y="10.730000000000004" width="3" height="2" as="geometry" />
        </mxCell>
        <mxCell id="dPUykWXNvH8D_2w4ptwh-134" value="" style="rounded=0;whiteSpace=wrap;html=1;strokeColor=none;fillColor=#222222;fontColor=#ffffff;strokeWidth=0.1;fontSize=3;fontFamily=Teko Light;container=0;" parent="YbWxmgszaFembR20GTfz-60" vertex="1">
          <mxGeometry x="307.29857142857145" y="9.227576744186067" width="12" height="5" as="geometry" />
        </mxCell>
        <mxCell id="dPUykWXNvH8D_2w4ptwh-135" value="" style="rounded=0;whiteSpace=wrap;html=1;strokeColor=none;fillColor=#000000;fontColor=#ffffff;strokeWidth=0.1;fontSize=3;fontFamily=Teko Light;container=0;" parent="YbWxmgszaFembR20GTfz-60" vertex="1">
          <mxGeometry x="307.2971428571429" y="13.231074995060638" width="12" height="7" as="geometry" />
        </mxCell>
        <mxCell id="dPUykWXNvH8D_2w4ptwh-136" value="" style="rounded=0;whiteSpace=wrap;html=1;strokeColor=none;fillColor=#000000;fontColor=#ffffff;strokeWidth=0.1;fontSize=3;fontFamily=Teko Light;container=0;" parent="YbWxmgszaFembR20GTfz-60" vertex="1">
          <mxGeometry x="310.8" y="10.230000000000004" width="5" height="4" as="geometry" />
        </mxCell>
        <mxCell id="dPUykWXNvH8D_2w4ptwh-137" value="" style="rounded=0;whiteSpace=wrap;html=1;strokeColor=none;fillColor=#60a917;fontColor=#ffffff;strokeWidth=0.1;fontSize=3;fontFamily=Teko Light;container=0;" parent="YbWxmgszaFembR20GTfz-60" vertex="1">
          <mxGeometry x="307.3" y="10.730000000000004" width="3" height="2" as="geometry" />
        </mxCell>
        <mxCell id="dPUykWXNvH8D_2w4ptwh-138" value="" style="rounded=0;whiteSpace=wrap;html=1;strokeColor=none;fillColor=#e3c800;fontColor=#000000;strokeWidth=0.1;fontSize=3;fontFamily=Teko Light;container=0;" parent="YbWxmgszaFembR20GTfz-60" vertex="1">
          <mxGeometry x="316.3" y="10.730000000000004" width="3" height="2" as="geometry" />
        </mxCell>
        <mxCell id="dPUykWXNvH8D_2w4ptwh-139" value="" style="rounded=0;whiteSpace=wrap;html=1;strokeColor=none;fillColor=#222222;fontColor=#ffffff;strokeWidth=0.1;fontSize=3;fontFamily=Teko Light;container=0;" parent="YbWxmgszaFembR20GTfz-60" vertex="1">
          <mxGeometry x="294.29857142857145" y="9.227576744186067" width="12" height="5" as="geometry" />
        </mxCell>
        <mxCell id="dPUykWXNvH8D_2w4ptwh-140" value="" style="rounded=0;whiteSpace=wrap;html=1;strokeColor=none;fillColor=#000000;fontColor=#ffffff;strokeWidth=0.1;fontSize=3;fontFamily=Teko Light;container=0;" parent="YbWxmgszaFembR20GTfz-60" vertex="1">
          <mxGeometry x="294.2971428571429" y="13.231074995060638" width="12" height="7" as="geometry" />
        </mxCell>
        <mxCell id="dPUykWXNvH8D_2w4ptwh-141" value="" style="rounded=0;whiteSpace=wrap;html=1;strokeColor=none;fillColor=#000000;fontColor=#ffffff;strokeWidth=0.1;fontSize=3;fontFamily=Teko Light;container=0;" parent="YbWxmgszaFembR20GTfz-60" vertex="1">
          <mxGeometry x="297.8" y="10.230000000000004" width="5" height="4" as="geometry" />
        </mxCell>
        <mxCell id="dPUykWXNvH8D_2w4ptwh-142" value="" style="rounded=0;whiteSpace=wrap;html=1;strokeColor=none;fillColor=#60a917;fontColor=#ffffff;strokeWidth=0.1;fontSize=3;fontFamily=Teko Light;container=0;" parent="YbWxmgszaFembR20GTfz-60" vertex="1">
          <mxGeometry x="294.3" y="10.730000000000004" width="3" height="2" as="geometry" />
        </mxCell>
        <mxCell id="dPUykWXNvH8D_2w4ptwh-143" value="" style="rounded=0;whiteSpace=wrap;html=1;strokeColor=none;fillColor=#e3c800;fontColor=#000000;strokeWidth=0.1;fontSize=3;fontFamily=Teko Light;container=0;" parent="YbWxmgszaFembR20GTfz-60" vertex="1">
          <mxGeometry x="303.3" y="10.730000000000004" width="3" height="2" as="geometry" />
        </mxCell>
        <mxCell id="dPUykWXNvH8D_2w4ptwh-144" value="" style="rounded=0;whiteSpace=wrap;html=1;strokeColor=none;fillColor=#222222;fontColor=#ffffff;strokeWidth=0.1;fontSize=3;fontFamily=Teko Light;container=0;rotation=-180;" parent="YbWxmgszaFembR20GTfz-60" vertex="1">
          <mxGeometry x="242.2971428571429" y="30.227576744186067" width="12" height="5" as="geometry" />
        </mxCell>
        <mxCell id="dPUykWXNvH8D_2w4ptwh-145" value="" style="rounded=0;whiteSpace=wrap;html=1;strokeColor=none;fillColor=#000000;fontColor=#ffffff;strokeWidth=0.1;fontSize=3;fontFamily=Teko Light;container=0;rotation=-180;" parent="YbWxmgszaFembR20GTfz-60" vertex="1">
          <mxGeometry x="242.2971428571429" y="24.227576744186067" width="12" height="7" as="geometry" />
        </mxCell>
        <mxCell id="dPUykWXNvH8D_2w4ptwh-146" value="" style="rounded=0;whiteSpace=wrap;html=1;strokeColor=none;fillColor=#000000;fontColor=#ffffff;strokeWidth=0.1;fontSize=3;fontFamily=Teko Light;container=0;rotation=-180;" parent="YbWxmgszaFembR20GTfz-60" vertex="1">
          <mxGeometry x="245.7971428571429" y="30.227576744186067" width="5" height="4" as="geometry" />
        </mxCell>
        <mxCell id="dPUykWXNvH8D_2w4ptwh-147" value="" style="rounded=0;whiteSpace=wrap;html=1;strokeColor=none;fillColor=#60a917;fontColor=#ffffff;strokeWidth=0.1;fontSize=3;fontFamily=Teko Light;container=0;rotation=-180;" parent="YbWxmgszaFembR20GTfz-60" vertex="1">
          <mxGeometry x="251.2971428571429" y="32.22757674418607" width="3" height="2" as="geometry" />
        </mxCell>
        <mxCell id="dPUykWXNvH8D_2w4ptwh-148" value="" style="rounded=0;whiteSpace=wrap;html=1;strokeColor=none;fillColor=#e3c800;fontColor=#000000;strokeWidth=0.1;fontSize=3;fontFamily=Teko Light;container=0;rotation=-180;" parent="YbWxmgszaFembR20GTfz-60" vertex="1">
          <mxGeometry x="242.2971428571429" y="32.22757674418607" width="3" height="2" as="geometry" />
        </mxCell>
        <mxCell id="dPUykWXNvH8D_2w4ptwh-149" value="" style="rounded=0;whiteSpace=wrap;html=1;strokeColor=none;fillColor=#222222;fontColor=#ffffff;strokeWidth=0.1;fontSize=3;fontFamily=Teko Light;container=0;rotation=-180;" parent="YbWxmgszaFembR20GTfz-60" vertex="1">
          <mxGeometry x="255.3" y="30.230000000000004" width="12" height="5" as="geometry" />
        </mxCell>
        <mxCell id="dPUykWXNvH8D_2w4ptwh-150" value="" style="rounded=0;whiteSpace=wrap;html=1;strokeColor=none;fillColor=#000000;fontColor=#ffffff;strokeWidth=0.1;fontSize=3;fontFamily=Teko Light;container=0;rotation=-180;" parent="YbWxmgszaFembR20GTfz-60" vertex="1">
          <mxGeometry x="255.3" y="24.230000000000004" width="12" height="7" as="geometry" />
        </mxCell>
        <mxCell id="dPUykWXNvH8D_2w4ptwh-151" value="" style="rounded=0;whiteSpace=wrap;html=1;strokeColor=none;fillColor=#000000;fontColor=#ffffff;strokeWidth=0.1;fontSize=3;fontFamily=Teko Light;container=0;rotation=-180;" parent="YbWxmgszaFembR20GTfz-60" vertex="1">
          <mxGeometry x="258.8" y="30.230000000000004" width="5" height="4" as="geometry" />
        </mxCell>
        <mxCell id="dPUykWXNvH8D_2w4ptwh-152" value="" style="rounded=0;whiteSpace=wrap;html=1;strokeColor=none;fillColor=#60a917;fontColor=#ffffff;strokeWidth=0.1;fontSize=3;fontFamily=Teko Light;container=0;rotation=-180;" parent="YbWxmgszaFembR20GTfz-60" vertex="1">
          <mxGeometry x="264.3" y="32.230000000000004" width="3" height="2" as="geometry" />
        </mxCell>
        <mxCell id="dPUykWXNvH8D_2w4ptwh-153" value="" style="rounded=0;whiteSpace=wrap;html=1;strokeColor=none;fillColor=#e3c800;fontColor=#000000;strokeWidth=0.1;fontSize=3;fontFamily=Teko Light;container=0;rotation=-180;" parent="YbWxmgszaFembR20GTfz-60" vertex="1">
          <mxGeometry x="255.3" y="32.230000000000004" width="3" height="2" as="geometry" />
        </mxCell>
        <mxCell id="dPUykWXNvH8D_2w4ptwh-154" value="" style="rounded=0;whiteSpace=wrap;html=1;strokeColor=none;fillColor=#222222;fontColor=#ffffff;strokeWidth=0.1;fontSize=3;fontFamily=Teko Light;container=0;rotation=-180;" parent="YbWxmgszaFembR20GTfz-60" vertex="1">
          <mxGeometry x="281.3" y="30.230000000000004" width="12" height="5" as="geometry" />
        </mxCell>
        <mxCell id="dPUykWXNvH8D_2w4ptwh-155" value="" style="rounded=0;whiteSpace=wrap;html=1;strokeColor=none;fillColor=#000000;fontColor=#ffffff;strokeWidth=0.1;fontSize=3;fontFamily=Teko Light;container=0;rotation=-180;" parent="YbWxmgszaFembR20GTfz-60" vertex="1">
          <mxGeometry x="281.3" y="24.230000000000004" width="12" height="7" as="geometry" />
        </mxCell>
        <mxCell id="dPUykWXNvH8D_2w4ptwh-156" value="" style="rounded=0;whiteSpace=wrap;html=1;strokeColor=none;fillColor=#000000;fontColor=#ffffff;strokeWidth=0.1;fontSize=3;fontFamily=Teko Light;container=0;rotation=-180;" parent="YbWxmgszaFembR20GTfz-60" vertex="1">
          <mxGeometry x="284.8" y="30.230000000000004" width="5" height="4" as="geometry" />
        </mxCell>
        <mxCell id="dPUykWXNvH8D_2w4ptwh-157" value="" style="rounded=0;whiteSpace=wrap;html=1;strokeColor=none;fillColor=#60a917;fontColor=#ffffff;strokeWidth=0.1;fontSize=3;fontFamily=Teko Light;container=0;rotation=-180;" parent="YbWxmgszaFembR20GTfz-60" vertex="1">
          <mxGeometry x="290.3" y="32.230000000000004" width="3" height="2" as="geometry" />
        </mxCell>
        <mxCell id="dPUykWXNvH8D_2w4ptwh-158" value="" style="rounded=0;whiteSpace=wrap;html=1;strokeColor=none;fillColor=#e3c800;fontColor=#000000;strokeWidth=0.1;fontSize=3;fontFamily=Teko Light;container=0;rotation=-180;" parent="YbWxmgszaFembR20GTfz-60" vertex="1">
          <mxGeometry x="281.3" y="32.230000000000004" width="3" height="2" as="geometry" />
        </mxCell>
        <mxCell id="dPUykWXNvH8D_2w4ptwh-159" value="" style="rounded=0;whiteSpace=wrap;html=1;strokeColor=none;fillColor=#222222;fontColor=#ffffff;strokeWidth=0.1;fontSize=3;fontFamily=Teko Light;container=0;rotation=-180;" parent="YbWxmgszaFembR20GTfz-60" vertex="1">
          <mxGeometry x="307.2971428571429" y="30.230000000000004" width="12" height="5" as="geometry" />
        </mxCell>
        <mxCell id="dPUykWXNvH8D_2w4ptwh-160" value="" style="rounded=0;whiteSpace=wrap;html=1;strokeColor=none;fillColor=#000000;fontColor=#ffffff;strokeWidth=0.1;fontSize=3;fontFamily=Teko Light;container=0;rotation=-180;" parent="YbWxmgszaFembR20GTfz-60" vertex="1">
          <mxGeometry x="307.2971428571429" y="24.230000000000004" width="12" height="7" as="geometry" />
        </mxCell>
        <mxCell id="dPUykWXNvH8D_2w4ptwh-161" value="" style="rounded=0;whiteSpace=wrap;html=1;strokeColor=none;fillColor=#000000;fontColor=#ffffff;strokeWidth=0.1;fontSize=3;fontFamily=Teko Light;container=0;rotation=-180;" parent="YbWxmgszaFembR20GTfz-60" vertex="1">
          <mxGeometry x="310.7971428571429" y="30.230000000000004" width="5" height="4" as="geometry" />
        </mxCell>
        <mxCell id="dPUykWXNvH8D_2w4ptwh-162" value="" style="rounded=0;whiteSpace=wrap;html=1;strokeColor=none;fillColor=#60a917;fontColor=#ffffff;strokeWidth=0.1;fontSize=3;fontFamily=Teko Light;container=0;rotation=-180;" parent="YbWxmgszaFembR20GTfz-60" vertex="1">
          <mxGeometry x="316.2971428571429" y="32.230000000000004" width="3" height="2" as="geometry" />
        </mxCell>
        <mxCell id="dPUykWXNvH8D_2w4ptwh-163" value="" style="rounded=0;whiteSpace=wrap;html=1;strokeColor=none;fillColor=#e3c800;fontColor=#000000;strokeWidth=0.1;fontSize=3;fontFamily=Teko Light;container=0;rotation=-180;" parent="YbWxmgszaFembR20GTfz-60" vertex="1">
          <mxGeometry x="307.2971428571429" y="32.230000000000004" width="3" height="2" as="geometry" />
        </mxCell>
        <mxCell id="dPUykWXNvH8D_2w4ptwh-164" value="" style="rounded=0;whiteSpace=wrap;html=1;strokeColor=none;fillColor=#222222;fontColor=#ffffff;strokeWidth=0.1;fontSize=3;fontFamily=Teko Light;container=0;rotation=-180;" parent="YbWxmgszaFembR20GTfz-60" vertex="1">
          <mxGeometry x="294.3" y="30.230000000000004" width="12" height="5" as="geometry" />
        </mxCell>
        <mxCell id="dPUykWXNvH8D_2w4ptwh-165" value="" style="rounded=0;whiteSpace=wrap;html=1;strokeColor=none;fillColor=#000000;fontColor=#ffffff;strokeWidth=0.1;fontSize=3;fontFamily=Teko Light;container=0;rotation=-180;" parent="YbWxmgszaFembR20GTfz-60" vertex="1">
          <mxGeometry x="294.3" y="24.230000000000004" width="12" height="7" as="geometry" />
        </mxCell>
        <mxCell id="dPUykWXNvH8D_2w4ptwh-166" value="" style="rounded=0;whiteSpace=wrap;html=1;strokeColor=none;fillColor=#000000;fontColor=#ffffff;strokeWidth=0.1;fontSize=3;fontFamily=Teko Light;container=0;rotation=-180;" parent="YbWxmgszaFembR20GTfz-60" vertex="1">
          <mxGeometry x="297.8" y="30.230000000000004" width="5" height="4" as="geometry" />
        </mxCell>
        <mxCell id="dPUykWXNvH8D_2w4ptwh-167" value="" style="rounded=0;whiteSpace=wrap;html=1;strokeColor=none;fillColor=#60a917;fontColor=#ffffff;strokeWidth=0.1;fontSize=3;fontFamily=Teko Light;container=0;rotation=-180;" parent="YbWxmgszaFembR20GTfz-60" vertex="1">
          <mxGeometry x="303.3" y="32.230000000000004" width="3" height="2" as="geometry" />
        </mxCell>
        <mxCell id="dPUykWXNvH8D_2w4ptwh-168" value="" style="rounded=0;whiteSpace=wrap;html=1;strokeColor=none;fillColor=#e3c800;fontColor=#000000;strokeWidth=0.1;fontSize=3;fontFamily=Teko Light;container=0;rotation=-180;" parent="YbWxmgszaFembR20GTfz-60" vertex="1">
          <mxGeometry x="294.3" y="32.230000000000004" width="3" height="2" as="geometry" />
        </mxCell>
        <mxCell id="dPUykWXNvH8D_2w4ptwh-184" value="" style="rounded=0;whiteSpace=wrap;html=1;strokeColor=none;fillColor=#222222;fontColor=#ffffff;strokeWidth=0.1;fontSize=3;fontFamily=Teko Light;container=0;rotation=-180;" parent="YbWxmgszaFembR20GTfz-60" vertex="1">
          <mxGeometry x="349.3" y="30.22999999999999" width="12" height="5" as="geometry" />
        </mxCell>
        <mxCell id="dPUykWXNvH8D_2w4ptwh-185" value="" style="rounded=0;whiteSpace=wrap;html=1;strokeColor=none;fillColor=#000000;fontColor=#ffffff;strokeWidth=0.1;fontSize=3;fontFamily=Teko Light;container=0;rotation=-180;" parent="YbWxmgszaFembR20GTfz-60" vertex="1">
          <mxGeometry x="349.3" y="24.22999999999999" width="12" height="7" as="geometry" />
        </mxCell>
        <mxCell id="dPUykWXNvH8D_2w4ptwh-186" value="" style="rounded=0;whiteSpace=wrap;html=1;strokeColor=none;fillColor=#000000;fontColor=#ffffff;strokeWidth=0.1;fontSize=3;fontFamily=Teko Light;container=0;rotation=-180;" parent="YbWxmgszaFembR20GTfz-60" vertex="1">
          <mxGeometry x="352.8" y="30.22999999999999" width="5" height="4" as="geometry" />
        </mxCell>
        <mxCell id="dPUykWXNvH8D_2w4ptwh-187" value="" style="rounded=0;whiteSpace=wrap;html=1;strokeColor=none;fillColor=#60a917;fontColor=#ffffff;strokeWidth=0.1;fontSize=3;fontFamily=Teko Light;container=0;rotation=-180;" parent="YbWxmgszaFembR20GTfz-60" vertex="1">
          <mxGeometry x="358.3" y="32.22999999999999" width="3" height="2" as="geometry" />
        </mxCell>
        <mxCell id="dPUykWXNvH8D_2w4ptwh-188" value="" style="rounded=0;whiteSpace=wrap;html=1;strokeColor=none;fillColor=#e3c800;fontColor=#000000;strokeWidth=0.1;fontSize=3;fontFamily=Teko Light;container=0;rotation=-180;" parent="YbWxmgszaFembR20GTfz-60" vertex="1">
          <mxGeometry x="349.3" y="32.22999999999999" width="3" height="2" as="geometry" />
        </mxCell>
        <mxCell id="dPUykWXNvH8D_2w4ptwh-189" value="" style="rounded=0;whiteSpace=wrap;html=1;strokeColor=none;fillColor=#222222;fontColor=#ffffff;strokeWidth=0.1;fontSize=3;fontFamily=Teko Light;container=0;" parent="YbWxmgszaFembR20GTfz-60" vertex="1">
          <mxGeometry x="323.29857142857145" y="9.227576744186052" width="12" height="5" as="geometry" />
        </mxCell>
        <mxCell id="dPUykWXNvH8D_2w4ptwh-190" value="" style="rounded=0;whiteSpace=wrap;html=1;strokeColor=none;fillColor=#000000;fontColor=#ffffff;strokeWidth=0.1;fontSize=3;fontFamily=Teko Light;container=0;" parent="YbWxmgszaFembR20GTfz-60" vertex="1">
          <mxGeometry x="323.2971428571429" y="13.231074995060624" width="12" height="7" as="geometry" />
        </mxCell>
        <mxCell id="dPUykWXNvH8D_2w4ptwh-191" value="" style="rounded=0;whiteSpace=wrap;html=1;strokeColor=none;fillColor=#000000;fontColor=#ffffff;strokeWidth=0.1;fontSize=3;fontFamily=Teko Light;container=0;" parent="YbWxmgszaFembR20GTfz-60" vertex="1">
          <mxGeometry x="326.8" y="10.22999999999999" width="5" height="4" as="geometry" />
        </mxCell>
        <mxCell id="dPUykWXNvH8D_2w4ptwh-192" value="" style="rounded=0;whiteSpace=wrap;html=1;strokeColor=none;fillColor=#60a917;fontColor=#ffffff;strokeWidth=0.1;fontSize=3;fontFamily=Teko Light;container=0;" parent="YbWxmgszaFembR20GTfz-60" vertex="1">
          <mxGeometry x="323.3" y="10.72999999999999" width="3" height="2" as="geometry" />
        </mxCell>
        <mxCell id="dPUykWXNvH8D_2w4ptwh-193" value="" style="rounded=0;whiteSpace=wrap;html=1;strokeColor=none;fillColor=#e3c800;fontColor=#000000;strokeWidth=0.1;fontSize=3;fontFamily=Teko Light;container=0;" parent="YbWxmgszaFembR20GTfz-60" vertex="1">
          <mxGeometry x="332.3" y="10.72999999999999" width="3" height="2" as="geometry" />
        </mxCell>
        <mxCell id="dPUykWXNvH8D_2w4ptwh-194" value="" style="rounded=0;whiteSpace=wrap;html=1;strokeColor=none;fillColor=#222222;fontColor=#ffffff;strokeWidth=0.1;fontSize=3;fontFamily=Teko Light;container=0;" parent="YbWxmgszaFembR20GTfz-60" vertex="1">
          <mxGeometry x="336.29857142857145" y="9.227576744186052" width="12" height="5" as="geometry" />
        </mxCell>
        <mxCell id="dPUykWXNvH8D_2w4ptwh-195" value="" style="rounded=0;whiteSpace=wrap;html=1;strokeColor=none;fillColor=#000000;fontColor=#ffffff;strokeWidth=0.1;fontSize=3;fontFamily=Teko Light;container=0;" parent="YbWxmgszaFembR20GTfz-60" vertex="1">
          <mxGeometry x="336.2971428571429" y="13.231074995060624" width="12" height="7" as="geometry" />
        </mxCell>
        <mxCell id="dPUykWXNvH8D_2w4ptwh-196" value="" style="rounded=0;whiteSpace=wrap;html=1;strokeColor=none;fillColor=#000000;fontColor=#ffffff;strokeWidth=0.1;fontSize=3;fontFamily=Teko Light;container=0;" parent="YbWxmgszaFembR20GTfz-60" vertex="1">
          <mxGeometry x="339.8" y="10.22999999999999" width="5" height="4" as="geometry" />
        </mxCell>
        <mxCell id="dPUykWXNvH8D_2w4ptwh-197" value="" style="rounded=0;whiteSpace=wrap;html=1;strokeColor=none;fillColor=#60a917;fontColor=#ffffff;strokeWidth=0.1;fontSize=3;fontFamily=Teko Light;container=0;" parent="YbWxmgszaFembR20GTfz-60" vertex="1">
          <mxGeometry x="336.3" y="10.72999999999999" width="3" height="2" as="geometry" />
        </mxCell>
        <mxCell id="dPUykWXNvH8D_2w4ptwh-198" value="" style="rounded=0;whiteSpace=wrap;html=1;strokeColor=none;fillColor=#e3c800;fontColor=#000000;strokeWidth=0.1;fontSize=3;fontFamily=Teko Light;container=0;" parent="YbWxmgszaFembR20GTfz-60" vertex="1">
          <mxGeometry x="345.3" y="10.72999999999999" width="3" height="2" as="geometry" />
        </mxCell>
        <mxCell id="dPUykWXNvH8D_2w4ptwh-199" value="" style="rounded=0;whiteSpace=wrap;html=1;strokeColor=none;fillColor=#222222;fontColor=#ffffff;strokeWidth=0.1;fontSize=3;fontFamily=Teko Light;container=0;" parent="YbWxmgszaFembR20GTfz-60" vertex="1">
          <mxGeometry x="349.29857142857145" y="9.227576744186052" width="12" height="5" as="geometry" />
        </mxCell>
        <mxCell id="dPUykWXNvH8D_2w4ptwh-200" value="" style="rounded=0;whiteSpace=wrap;html=1;strokeColor=none;fillColor=#000000;fontColor=#ffffff;strokeWidth=0.1;fontSize=3;fontFamily=Teko Light;container=0;" parent="YbWxmgszaFembR20GTfz-60" vertex="1">
          <mxGeometry x="349.2971428571429" y="13.231074995060624" width="12" height="7" as="geometry" />
        </mxCell>
        <mxCell id="dPUykWXNvH8D_2w4ptwh-201" value="" style="rounded=0;whiteSpace=wrap;html=1;strokeColor=none;fillColor=#000000;fontColor=#ffffff;strokeWidth=0.1;fontSize=3;fontFamily=Teko Light;container=0;" parent="YbWxmgszaFembR20GTfz-60" vertex="1">
          <mxGeometry x="352.8" y="10.22999999999999" width="5" height="4" as="geometry" />
        </mxCell>
        <mxCell id="dPUykWXNvH8D_2w4ptwh-202" value="" style="rounded=0;whiteSpace=wrap;html=1;strokeColor=none;fillColor=#60a917;fontColor=#ffffff;strokeWidth=0.1;fontSize=3;fontFamily=Teko Light;container=0;" parent="YbWxmgszaFembR20GTfz-60" vertex="1">
          <mxGeometry x="349.3" y="10.72999999999999" width="3" height="2" as="geometry" />
        </mxCell>
        <mxCell id="dPUykWXNvH8D_2w4ptwh-203" value="" style="rounded=0;whiteSpace=wrap;html=1;strokeColor=none;fillColor=#e3c800;fontColor=#000000;strokeWidth=0.1;fontSize=3;fontFamily=Teko Light;container=0;" parent="YbWxmgszaFembR20GTfz-60" vertex="1">
          <mxGeometry x="358.3" y="10.72999999999999" width="3" height="2" as="geometry" />
        </mxCell>
        <mxCell id="dPUykWXNvH8D_2w4ptwh-204" value="" style="rounded=0;whiteSpace=wrap;html=1;strokeColor=none;fillColor=#222222;fontColor=#ffffff;strokeWidth=0.1;fontSize=3;fontFamily=Teko Light;container=0;" parent="YbWxmgszaFembR20GTfz-60" vertex="1">
          <mxGeometry x="362.29857142857145" y="9.227576744186052" width="12" height="5" as="geometry" />
        </mxCell>
        <mxCell id="dPUykWXNvH8D_2w4ptwh-205" value="" style="rounded=0;whiteSpace=wrap;html=1;strokeColor=none;fillColor=#000000;fontColor=#ffffff;strokeWidth=0.1;fontSize=3;fontFamily=Teko Light;container=0;" parent="YbWxmgszaFembR20GTfz-60" vertex="1">
          <mxGeometry x="362.2971428571429" y="13.231074995060624" width="12" height="7" as="geometry" />
        </mxCell>
        <mxCell id="dPUykWXNvH8D_2w4ptwh-206" value="" style="rounded=0;whiteSpace=wrap;html=1;strokeColor=none;fillColor=#000000;fontColor=#ffffff;strokeWidth=0.1;fontSize=3;fontFamily=Teko Light;container=0;" parent="YbWxmgszaFembR20GTfz-60" vertex="1">
          <mxGeometry x="365.8" y="10.22999999999999" width="5" height="4" as="geometry" />
        </mxCell>
        <mxCell id="dPUykWXNvH8D_2w4ptwh-207" value="" style="rounded=0;whiteSpace=wrap;html=1;strokeColor=none;fillColor=#60a917;fontColor=#ffffff;strokeWidth=0.1;fontSize=3;fontFamily=Teko Light;container=0;" parent="YbWxmgszaFembR20GTfz-60" vertex="1">
          <mxGeometry x="362.3" y="10.72999999999999" width="3" height="2" as="geometry" />
        </mxCell>
        <mxCell id="dPUykWXNvH8D_2w4ptwh-208" value="" style="rounded=0;whiteSpace=wrap;html=1;strokeColor=none;fillColor=#e3c800;fontColor=#000000;strokeWidth=0.1;fontSize=3;fontFamily=Teko Light;container=0;" parent="YbWxmgszaFembR20GTfz-60" vertex="1">
          <mxGeometry x="371.3" y="10.72999999999999" width="3" height="2" as="geometry" />
        </mxCell>
        <mxCell id="dPUykWXNvH8D_2w4ptwh-209" value="" style="rounded=0;whiteSpace=wrap;html=1;strokeColor=none;fillColor=#222222;fontColor=#ffffff;strokeWidth=0.1;fontSize=3;fontFamily=Teko Light;container=0;" parent="YbWxmgszaFembR20GTfz-60" vertex="1">
          <mxGeometry x="388.29857142857145" y="9.227576744186052" width="12" height="5" as="geometry" />
        </mxCell>
        <mxCell id="dPUykWXNvH8D_2w4ptwh-210" value="" style="rounded=0;whiteSpace=wrap;html=1;strokeColor=none;fillColor=#000000;fontColor=#ffffff;strokeWidth=0.1;fontSize=3;fontFamily=Teko Light;container=0;" parent="YbWxmgszaFembR20GTfz-60" vertex="1">
          <mxGeometry x="388.2971428571429" y="13.231074995060624" width="12" height="7" as="geometry" />
        </mxCell>
        <mxCell id="dPUykWXNvH8D_2w4ptwh-211" value="" style="rounded=0;whiteSpace=wrap;html=1;strokeColor=none;fillColor=#000000;fontColor=#ffffff;strokeWidth=0.1;fontSize=3;fontFamily=Teko Light;container=0;" parent="YbWxmgszaFembR20GTfz-60" vertex="1">
          <mxGeometry x="391.8" y="10.22999999999999" width="5" height="4" as="geometry" />
        </mxCell>
        <mxCell id="dPUykWXNvH8D_2w4ptwh-212" value="" style="rounded=0;whiteSpace=wrap;html=1;strokeColor=none;fillColor=#60a917;fontColor=#ffffff;strokeWidth=0.1;fontSize=3;fontFamily=Teko Light;container=0;" parent="YbWxmgszaFembR20GTfz-60" vertex="1">
          <mxGeometry x="388.3" y="10.72999999999999" width="3" height="2" as="geometry" />
        </mxCell>
        <mxCell id="dPUykWXNvH8D_2w4ptwh-213" value="" style="rounded=0;whiteSpace=wrap;html=1;strokeColor=none;fillColor=#e3c800;fontColor=#000000;strokeWidth=0.1;fontSize=3;fontFamily=Teko Light;container=0;" parent="YbWxmgszaFembR20GTfz-60" vertex="1">
          <mxGeometry x="397.3" y="10.72999999999999" width="3" height="2" as="geometry" />
        </mxCell>
        <mxCell id="dPUykWXNvH8D_2w4ptwh-214" value="" style="rounded=0;whiteSpace=wrap;html=1;strokeColor=none;fillColor=#222222;fontColor=#ffffff;strokeWidth=0.1;fontSize=3;fontFamily=Teko Light;container=0;" parent="YbWxmgszaFembR20GTfz-60" vertex="1">
          <mxGeometry x="375.29857142857145" y="9.227576744186052" width="12" height="5" as="geometry" />
        </mxCell>
        <mxCell id="dPUykWXNvH8D_2w4ptwh-215" value="" style="rounded=0;whiteSpace=wrap;html=1;strokeColor=none;fillColor=#000000;fontColor=#ffffff;strokeWidth=0.1;fontSize=3;fontFamily=Teko Light;container=0;" parent="YbWxmgszaFembR20GTfz-60" vertex="1">
          <mxGeometry x="375.2971428571429" y="13.231074995060624" width="12" height="7" as="geometry" />
        </mxCell>
        <mxCell id="dPUykWXNvH8D_2w4ptwh-216" value="" style="rounded=0;whiteSpace=wrap;html=1;strokeColor=none;fillColor=#000000;fontColor=#ffffff;strokeWidth=0.1;fontSize=3;fontFamily=Teko Light;container=0;" parent="YbWxmgszaFembR20GTfz-60" vertex="1">
          <mxGeometry x="378.8" y="10.22999999999999" width="5" height="4" as="geometry" />
        </mxCell>
        <mxCell id="dPUykWXNvH8D_2w4ptwh-217" value="" style="rounded=0;whiteSpace=wrap;html=1;strokeColor=none;fillColor=#60a917;fontColor=#ffffff;strokeWidth=0.1;fontSize=3;fontFamily=Teko Light;container=0;" parent="YbWxmgszaFembR20GTfz-60" vertex="1">
          <mxGeometry x="375.3" y="10.72999999999999" width="3" height="2" as="geometry" />
        </mxCell>
        <mxCell id="dPUykWXNvH8D_2w4ptwh-218" value="" style="rounded=0;whiteSpace=wrap;html=1;strokeColor=none;fillColor=#e3c800;fontColor=#000000;strokeWidth=0.1;fontSize=3;fontFamily=Teko Light;container=0;" parent="YbWxmgszaFembR20GTfz-60" vertex="1">
          <mxGeometry x="384.3" y="10.72999999999999" width="3" height="2" as="geometry" />
        </mxCell>
        <mxCell id="dPUykWXNvH8D_2w4ptwh-219" value="" style="rounded=0;whiteSpace=wrap;html=1;strokeColor=none;fillColor=#222222;fontColor=#ffffff;strokeWidth=0.1;fontSize=3;fontFamily=Teko Light;container=0;rotation=-180;" parent="YbWxmgszaFembR20GTfz-60" vertex="1">
          <mxGeometry x="323.2971428571429" y="30.227576744186052" width="12" height="5" as="geometry" />
        </mxCell>
        <mxCell id="dPUykWXNvH8D_2w4ptwh-220" value="" style="rounded=0;whiteSpace=wrap;html=1;strokeColor=none;fillColor=#000000;fontColor=#ffffff;strokeWidth=0.1;fontSize=3;fontFamily=Teko Light;container=0;rotation=-180;" parent="YbWxmgszaFembR20GTfz-60" vertex="1">
          <mxGeometry x="323.2971428571429" y="24.227576744186052" width="12" height="7" as="geometry" />
        </mxCell>
        <mxCell id="dPUykWXNvH8D_2w4ptwh-221" value="" style="rounded=0;whiteSpace=wrap;html=1;strokeColor=none;fillColor=#000000;fontColor=#ffffff;strokeWidth=0.1;fontSize=3;fontFamily=Teko Light;container=0;rotation=-180;" parent="YbWxmgszaFembR20GTfz-60" vertex="1">
          <mxGeometry x="326.7971428571429" y="30.227576744186052" width="5" height="4" as="geometry" />
        </mxCell>
        <mxCell id="dPUykWXNvH8D_2w4ptwh-222" value="" style="rounded=0;whiteSpace=wrap;html=1;strokeColor=none;fillColor=#60a917;fontColor=#ffffff;strokeWidth=0.1;fontSize=3;fontFamily=Teko Light;container=0;rotation=-180;" parent="YbWxmgszaFembR20GTfz-60" vertex="1">
          <mxGeometry x="332.2971428571429" y="32.22757674418605" width="3" height="2" as="geometry" />
        </mxCell>
        <mxCell id="dPUykWXNvH8D_2w4ptwh-223" value="" style="rounded=0;whiteSpace=wrap;html=1;strokeColor=none;fillColor=#e3c800;fontColor=#000000;strokeWidth=0.1;fontSize=3;fontFamily=Teko Light;container=0;rotation=-180;" parent="YbWxmgszaFembR20GTfz-60" vertex="1">
          <mxGeometry x="323.2971428571429" y="32.22757674418605" width="3" height="2" as="geometry" />
        </mxCell>
        <mxCell id="dPUykWXNvH8D_2w4ptwh-224" value="" style="rounded=0;whiteSpace=wrap;html=1;strokeColor=none;fillColor=#222222;fontColor=#ffffff;strokeWidth=0.1;fontSize=3;fontFamily=Teko Light;container=0;rotation=-180;" parent="YbWxmgszaFembR20GTfz-60" vertex="1">
          <mxGeometry x="336.3" y="30.22999999999999" width="12" height="5" as="geometry" />
        </mxCell>
        <mxCell id="dPUykWXNvH8D_2w4ptwh-225" value="" style="rounded=0;whiteSpace=wrap;html=1;strokeColor=none;fillColor=#000000;fontColor=#ffffff;strokeWidth=0.1;fontSize=3;fontFamily=Teko Light;container=0;rotation=-180;" parent="YbWxmgszaFembR20GTfz-60" vertex="1">
          <mxGeometry x="336.3" y="24.22999999999999" width="12" height="7" as="geometry" />
        </mxCell>
        <mxCell id="dPUykWXNvH8D_2w4ptwh-226" value="" style="rounded=0;whiteSpace=wrap;html=1;strokeColor=none;fillColor=#000000;fontColor=#ffffff;strokeWidth=0.1;fontSize=3;fontFamily=Teko Light;container=0;rotation=-180;" parent="YbWxmgszaFembR20GTfz-60" vertex="1">
          <mxGeometry x="339.8" y="30.22999999999999" width="5" height="4" as="geometry" />
        </mxCell>
        <mxCell id="dPUykWXNvH8D_2w4ptwh-227" value="" style="rounded=0;whiteSpace=wrap;html=1;strokeColor=none;fillColor=#60a917;fontColor=#ffffff;strokeWidth=0.1;fontSize=3;fontFamily=Teko Light;container=0;rotation=-180;" parent="YbWxmgszaFembR20GTfz-60" vertex="1">
          <mxGeometry x="345.3" y="32.22999999999999" width="3" height="2" as="geometry" />
        </mxCell>
        <mxCell id="dPUykWXNvH8D_2w4ptwh-228" value="" style="rounded=0;whiteSpace=wrap;html=1;strokeColor=none;fillColor=#e3c800;fontColor=#000000;strokeWidth=0.1;fontSize=3;fontFamily=Teko Light;container=0;rotation=-180;" parent="YbWxmgszaFembR20GTfz-60" vertex="1">
          <mxGeometry x="336.3" y="32.22999999999999" width="3" height="2" as="geometry" />
        </mxCell>
        <mxCell id="dPUykWXNvH8D_2w4ptwh-229" value="" style="rounded=0;whiteSpace=wrap;html=1;strokeColor=none;fillColor=#222222;fontColor=#ffffff;strokeWidth=0.1;fontSize=3;fontFamily=Teko Light;container=0;rotation=-180;" parent="YbWxmgszaFembR20GTfz-60" vertex="1">
          <mxGeometry x="362.3" y="30.22999999999999" width="12" height="5" as="geometry" />
        </mxCell>
        <mxCell id="dPUykWXNvH8D_2w4ptwh-230" value="" style="rounded=0;whiteSpace=wrap;html=1;strokeColor=none;fillColor=#000000;fontColor=#ffffff;strokeWidth=0.1;fontSize=3;fontFamily=Teko Light;container=0;rotation=-180;" parent="YbWxmgszaFembR20GTfz-60" vertex="1">
          <mxGeometry x="362.3" y="24.22999999999999" width="12" height="7" as="geometry" />
        </mxCell>
        <mxCell id="dPUykWXNvH8D_2w4ptwh-231" value="" style="rounded=0;whiteSpace=wrap;html=1;strokeColor=none;fillColor=#000000;fontColor=#ffffff;strokeWidth=0.1;fontSize=3;fontFamily=Teko Light;container=0;rotation=-180;" parent="YbWxmgszaFembR20GTfz-60" vertex="1">
          <mxGeometry x="365.8" y="30.22999999999999" width="5" height="4" as="geometry" />
        </mxCell>
        <mxCell id="dPUykWXNvH8D_2w4ptwh-232" value="" style="rounded=0;whiteSpace=wrap;html=1;strokeColor=none;fillColor=#60a917;fontColor=#ffffff;strokeWidth=0.1;fontSize=3;fontFamily=Teko Light;container=0;rotation=-180;" parent="YbWxmgszaFembR20GTfz-60" vertex="1">
          <mxGeometry x="371.3" y="32.22999999999999" width="3" height="2" as="geometry" />
        </mxCell>
        <mxCell id="dPUykWXNvH8D_2w4ptwh-233" value="" style="rounded=0;whiteSpace=wrap;html=1;strokeColor=none;fillColor=#e3c800;fontColor=#000000;strokeWidth=0.1;fontSize=3;fontFamily=Teko Light;container=0;rotation=-180;" parent="YbWxmgszaFembR20GTfz-60" vertex="1">
          <mxGeometry x="362.3" y="32.22999999999999" width="3" height="2" as="geometry" />
        </mxCell>
        <mxCell id="dPUykWXNvH8D_2w4ptwh-234" value="" style="rounded=0;whiteSpace=wrap;html=1;strokeColor=none;fillColor=#222222;fontColor=#ffffff;strokeWidth=0.1;fontSize=3;fontFamily=Teko Light;container=0;rotation=-180;" parent="YbWxmgszaFembR20GTfz-60" vertex="1">
          <mxGeometry x="388.2971428571429" y="30.22999999999999" width="12" height="5" as="geometry" />
        </mxCell>
        <mxCell id="dPUykWXNvH8D_2w4ptwh-235" value="" style="rounded=0;whiteSpace=wrap;html=1;strokeColor=none;fillColor=#000000;fontColor=#ffffff;strokeWidth=0.1;fontSize=3;fontFamily=Teko Light;container=0;rotation=-180;" parent="YbWxmgszaFembR20GTfz-60" vertex="1">
          <mxGeometry x="388.2971428571429" y="24.22999999999999" width="12" height="7" as="geometry" />
        </mxCell>
        <mxCell id="dPUykWXNvH8D_2w4ptwh-236" value="" style="rounded=0;whiteSpace=wrap;html=1;strokeColor=none;fillColor=#000000;fontColor=#ffffff;strokeWidth=0.1;fontSize=3;fontFamily=Teko Light;container=0;rotation=-180;" parent="YbWxmgszaFembR20GTfz-60" vertex="1">
          <mxGeometry x="391.7971428571429" y="30.22999999999999" width="5" height="4" as="geometry" />
        </mxCell>
        <mxCell id="dPUykWXNvH8D_2w4ptwh-237" value="" style="rounded=0;whiteSpace=wrap;html=1;strokeColor=none;fillColor=#60a917;fontColor=#ffffff;strokeWidth=0.1;fontSize=3;fontFamily=Teko Light;container=0;rotation=-180;" parent="YbWxmgszaFembR20GTfz-60" vertex="1">
          <mxGeometry x="397.2971428571429" y="32.22999999999999" width="3" height="2" as="geometry" />
        </mxCell>
        <mxCell id="dPUykWXNvH8D_2w4ptwh-238" value="" style="rounded=0;whiteSpace=wrap;html=1;strokeColor=none;fillColor=#e3c800;fontColor=#000000;strokeWidth=0.1;fontSize=3;fontFamily=Teko Light;container=0;rotation=-180;" parent="YbWxmgszaFembR20GTfz-60" vertex="1">
          <mxGeometry x="388.2971428571429" y="32.22999999999999" width="3" height="2" as="geometry" />
        </mxCell>
        <mxCell id="dPUykWXNvH8D_2w4ptwh-239" value="" style="rounded=0;whiteSpace=wrap;html=1;strokeColor=none;fillColor=#222222;fontColor=#ffffff;strokeWidth=0.1;fontSize=3;fontFamily=Teko Light;container=0;rotation=-180;" parent="YbWxmgszaFembR20GTfz-60" vertex="1">
          <mxGeometry x="375.3" y="30.22999999999999" width="12" height="5" as="geometry" />
        </mxCell>
        <mxCell id="dPUykWXNvH8D_2w4ptwh-240" value="" style="rounded=0;whiteSpace=wrap;html=1;strokeColor=none;fillColor=#000000;fontColor=#ffffff;strokeWidth=0.1;fontSize=3;fontFamily=Teko Light;container=0;rotation=-180;" parent="YbWxmgszaFembR20GTfz-60" vertex="1">
          <mxGeometry x="375.3" y="24.22999999999999" width="12" height="7" as="geometry" />
        </mxCell>
        <mxCell id="dPUykWXNvH8D_2w4ptwh-241" value="" style="rounded=0;whiteSpace=wrap;html=1;strokeColor=none;fillColor=#000000;fontColor=#ffffff;strokeWidth=0.1;fontSize=3;fontFamily=Teko Light;container=0;rotation=-180;" parent="YbWxmgszaFembR20GTfz-60" vertex="1">
          <mxGeometry x="378.8" y="30.22999999999999" width="5" height="4" as="geometry" />
        </mxCell>
        <mxCell id="dPUykWXNvH8D_2w4ptwh-242" value="" style="rounded=0;whiteSpace=wrap;html=1;strokeColor=none;fillColor=#60a917;fontColor=#ffffff;strokeWidth=0.1;fontSize=3;fontFamily=Teko Light;container=0;rotation=-180;" parent="YbWxmgszaFembR20GTfz-60" vertex="1">
          <mxGeometry x="384.3" y="32.22999999999999" width="3" height="2" as="geometry" />
        </mxCell>
        <mxCell id="dPUykWXNvH8D_2w4ptwh-243" value="" style="rounded=0;whiteSpace=wrap;html=1;strokeColor=none;fillColor=#e3c800;fontColor=#000000;strokeWidth=0.1;fontSize=3;fontFamily=Teko Light;container=0;rotation=-180;" parent="YbWxmgszaFembR20GTfz-60" vertex="1">
          <mxGeometry x="375.3" y="32.22999999999999" width="3" height="2" as="geometry" />
        </mxCell>
        <mxCell id="dPUykWXNvH8D_2w4ptwh-297" value="" style="rounded=0;whiteSpace=wrap;html=1;strokeColor=#000000;fillColor=#BFBFBF;fontColor=#ffffff;strokeWidth=0.1;container=0;align=center;verticalAlign=middle;fontFamily=Teko Light;fontSize=3;" parent="YbWxmgszaFembR20GTfz-60" vertex="1">
          <mxGeometry x="427.3" y="8.22999999999999" width="15" height="28" as="geometry" />
        </mxCell>
        <mxCell id="dPUykWXNvH8D_2w4ptwh-299" value="" style="rounded=0;whiteSpace=wrap;html=1;strokeColor=#AAAAAA;fillColor=#000000;fontColor=#ffffff;strokeWidth=0.1;container=0;" parent="YbWxmgszaFembR20GTfz-60" vertex="1">
          <mxGeometry x="427.8" y="25.72999999999999" width="14" height="10" as="geometry" />
        </mxCell>
        <mxCell id="dPUykWXNvH8D_2w4ptwh-300" value="" style="rounded=0;whiteSpace=wrap;html=1;strokeColor=#AAAAAA;fillColor=#000000;fontColor=#ffffff;strokeWidth=0.1;container=0;" parent="YbWxmgszaFembR20GTfz-60" vertex="1">
          <mxGeometry x="427.8" y="8.72999999999999" width="14" height="10" as="geometry" />
        </mxCell>
        <mxCell id="dPUykWXNvH8D_2w4ptwh-301" value="" style="rounded=0;whiteSpace=wrap;html=1;strokeColor=#111111;fillColor=#BFBFBF;fontColor=#ffffff;strokeWidth=0.1;container=0;" parent="YbWxmgszaFembR20GTfz-60" vertex="1">
          <mxGeometry x="432.3" y="25.22999999999999" width="5" height="1.2" as="geometry" />
        </mxCell>
        <mxCell id="dPUykWXNvH8D_2w4ptwh-302" value="" style="rounded=0;whiteSpace=wrap;html=1;strokeColor=#111111;fillColor=#BFBFBF;fontColor=#ffffff;strokeWidth=0.1;container=0;" parent="YbWxmgszaFembR20GTfz-60" vertex="1">
          <mxGeometry x="432.3" y="18.029999999999987" width="5" height="1.2" as="geometry" />
        </mxCell>
        <mxCell id="dPUykWXNvH8D_2w4ptwh-272" value="" style="triangle;whiteSpace=wrap;html=1;fillColor=#60a917;fontColor=#ffffff;strokeColor=none;rotation=90;container=0;" parent="YbWxmgszaFembR20GTfz-60" vertex="1">
          <mxGeometry x="437.43" y="20.72999999999999" width="3" height="3.000000000000001" as="geometry" />
        </mxCell>
        <mxCell id="dPUykWXNvH8D_2w4ptwh-273" value="" style="triangle;whiteSpace=wrap;html=1;fillColor=#60a917;fontColor=#ffffff;strokeColor=none;rotation=-90;container=0;" parent="YbWxmgszaFembR20GTfz-60" vertex="1">
          <mxGeometry x="428.8" y="20.72999999999999" width="3" height="3.000000000000001" as="geometry" />
        </mxCell>
        <mxCell id="J5RZUyof8dS3kiCCLcv3-2" value="" style="rounded=1;whiteSpace=wrap;html=1;fillColor=#000213;strokeColor=#000000;glass=0;container=0;arcSize=8;gradientColor=none;gradientDirection=north;strokeWidth=0.1;" parent="YbWxmgszaFembR20GTfz-60" vertex="1">
          <mxGeometry x="26.22" y="8.219999999999999" width="28" height="28" as="geometry" />
        </mxCell>
        <mxCell id="YbWxmgszaFembR20GTfz-1" value="&lt;b&gt;USW&amp;nbsp;&lt;/b&gt;ϟ" style="text;html=1;align=center;verticalAlign=middle;whiteSpace=wrap;rounded=0;fontSize=3;fontColor=#000000;container=0;" parent="YbWxmgszaFembR20GTfz-60" vertex="1">
          <mxGeometry x="32.22000000000001" y="37.22999999999999" width="16" height="5" as="geometry" />
        </mxCell>
        <mxCell id="YbWxmgszaFembR20GTfz-4" style="edgeStyle=orthogonalEdgeStyle;rounded=0;orthogonalLoop=1;jettySize=auto;html=1;exitX=1;exitY=0.5;exitDx=0;exitDy=0;entryX=1;entryY=0.5;entryDx=0;entryDy=0;strokeWidth=0.1;endArrow=none;endFill=0;strokeColor=#C5C5C5;" parent="YbWxmgszaFembR20GTfz-60" source="YbWxmgszaFembR20GTfz-2" target="J5RZUyof8dS3kiCCLcv3-2" edge="1">
          <mxGeometry relative="1" as="geometry" />
        </mxCell>
        <mxCell id="YbWxmgszaFembR20GTfz-5" style="edgeStyle=orthogonalEdgeStyle;rounded=0;orthogonalLoop=1;jettySize=auto;html=1;exitX=0.5;exitY=0;exitDx=0;exitDy=0;entryX=0.5;entryY=0;entryDx=0;entryDy=0;endArrow=none;endFill=0;strokeWidth=0.1;strokeColor=#C5C5C5;" parent="YbWxmgszaFembR20GTfz-60" source="YbWxmgszaFembR20GTfz-2" target="J5RZUyof8dS3kiCCLcv3-2" edge="1">
          <mxGeometry relative="1" as="geometry" />
        </mxCell>
        <mxCell id="YbWxmgszaFembR20GTfz-6" style="edgeStyle=orthogonalEdgeStyle;rounded=0;orthogonalLoop=1;jettySize=auto;html=1;exitX=0;exitY=0.5;exitDx=0;exitDy=0;entryX=0;entryY=0.5;entryDx=0;entryDy=0;endArrow=none;endFill=0;strokeColor=#C5C5C5;strokeWidth=0.1;" parent="YbWxmgszaFembR20GTfz-60" source="YbWxmgszaFembR20GTfz-2" target="J5RZUyof8dS3kiCCLcv3-2" edge="1">
          <mxGeometry relative="1" as="geometry" />
        </mxCell>
        <mxCell id="YbWxmgszaFembR20GTfz-2" value="" style="ellipse;whiteSpace=wrap;html=1;aspect=fixed;strokeColor=#c5c5c5;fillColor=none;strokeWidth=0.1;container=0;" parent="YbWxmgszaFembR20GTfz-60" vertex="1">
          <mxGeometry x="35.22" y="17.22" width="10" height="10" as="geometry" />
        </mxCell>
        <mxCell id="YbWxmgszaFembR20GTfz-7" style="edgeStyle=orthogonalEdgeStyle;rounded=0;orthogonalLoop=1;jettySize=auto;html=1;exitX=0.5;exitY=1;exitDx=0;exitDy=0;entryX=0.5;entryY=1;entryDx=0;entryDy=0;endArrow=none;endFill=0;strokeWidth=0.1;strokeColor=#C5C5C5;" parent="YbWxmgszaFembR20GTfz-60" source="J5RZUyof8dS3kiCCLcv3-2" target="YbWxmgszaFembR20GTfz-2" edge="1">
          <mxGeometry relative="1" as="geometry">
            <mxPoint x="50" y="27" as="sourcePoint" />
            <mxPoint x="50" y="18" as="targetPoint" />
          </mxGeometry>
        </mxCell>
        <mxCell id="YbWxmgszaFembR20GTfz-9" value="" style="ellipse;whiteSpace=wrap;html=1;aspect=fixed;strokeColor=#c5c5c5;fillColor=#c5c5c5;strokeWidth=0.1;container=0;" parent="YbWxmgszaFembR20GTfz-60" vertex="1">
          <mxGeometry x="38.22" y="20.22" width="4" height="4" as="geometry" />
        </mxCell>
        <mxCell id="YbWxmgszaFembR20GTfz-10" value="" style="ellipse;whiteSpace=wrap;html=1;aspect=fixed;strokeColor=#4E95BE;fillColor=none;strokeWidth=0.1;container=0;" parent="YbWxmgszaFembR20GTfz-60" vertex="1">
          <mxGeometry x="39.22" y="21.22" width="2" height="2" as="geometry" />
        </mxCell>
        <mxCell id="YbWxmgszaFembR20GTfz-12" value="" style="sketch=0;pointerEvents=1;shadow=0;dashed=0;html=1;strokeColor=none;fillColor=#c5c5c5;aspect=fixed;labelPosition=center;verticalLabelPosition=bottom;verticalAlign=top;align=center;outlineConnect=0;shape=mxgraph.vvd.ethernet_port;rotation=-180;container=0;" parent="YbWxmgszaFembR20GTfz-60" vertex="1">
          <mxGeometry x="30.22" y="12.219999999999999" width="5" height="5" as="geometry" />
        </mxCell>
        <mxCell id="YbWxmgszaFembR20GTfz-16" value="" style="sketch=0;outlineConnect=0;fontColor=#232F3E;gradientColor=none;fillColor=#c5c5c5;strokeColor=none;dashed=0;verticalLabelPosition=bottom;verticalAlign=top;align=center;html=1;fontSize=12;fontStyle=0;aspect=fixed;pointerEvents=1;shape=mxgraph.aws4.gear;container=0;" parent="YbWxmgszaFembR20GTfz-60" vertex="1">
          <mxGeometry x="45.22" y="27.22" width="5" height="5" as="geometry" />
        </mxCell>
        <mxCell id="YbWxmgszaFembR20GTfz-17" value="" style="html=1;verticalLabelPosition=bottom;align=center;labelBackgroundColor=#ffffff;verticalAlign=top;strokeWidth=0.2;strokeColor=#c5c5c5;shadow=0;dashed=0;shape=mxgraph.ios7.icons.info;fillColor=none;container=0;" parent="YbWxmgszaFembR20GTfz-60" vertex="1">
          <mxGeometry x="30.22" y="27.22" width="5" height="5" as="geometry" />
        </mxCell>
        <mxCell id="YbWxmgszaFembR20GTfz-33" value="" style="rounded=0;whiteSpace=wrap;html=1;fillColor=#C5C5C5;strokeColor=none;container=0;" parent="YbWxmgszaFembR20GTfz-60" vertex="1">
          <mxGeometry x="46.22" y="14.219999999999999" width="1" height="2" as="geometry" />
        </mxCell>
        <mxCell id="YbWxmgszaFembR20GTfz-34" value="" style="rounded=0;whiteSpace=wrap;html=1;fillColor=#C5C5C5;strokeColor=none;container=0;" parent="YbWxmgszaFembR20GTfz-60" vertex="1">
          <mxGeometry x="47.72" y="12.219999999999999" width="1" height="4" as="geometry" />
        </mxCell>
        <mxCell id="YbWxmgszaFembR20GTfz-35" value="" style="rounded=0;whiteSpace=wrap;html=1;fillColor=#C5C5C5;strokeColor=none;container=0;" parent="YbWxmgszaFembR20GTfz-60" vertex="1">
          <mxGeometry x="49.22" y="13.219999999999999" width="1" height="3" as="geometry" />
        </mxCell>
        <mxCell id="YbWxmgszaFembR20GTfz-38" value="" style="rounded=1;whiteSpace=wrap;html=1;strokeWidth=0.2;strokeColor=#b5b5b5;arcSize=50;fillColor=#000000;" parent="YbWxmgszaFembR20GTfz-60" vertex="1">
          <mxGeometry x="72.22" y="1" width="70" height="2" as="geometry" />
        </mxCell>
        <mxCell id="YbWxmgszaFembR20GTfz-44" value="" style="rounded=1;whiteSpace=wrap;html=1;strokeWidth=0.2;strokeColor=#b5b5b5;arcSize=50;fillColor=#000000;" parent="YbWxmgszaFembR20GTfz-60" vertex="1">
          <mxGeometry x="147.22" y="1" width="70" height="2" as="geometry" />
        </mxCell>
        <mxCell id="YbWxmgszaFembR20GTfz-45" value="" style="rounded=1;whiteSpace=wrap;html=1;strokeWidth=0.2;strokeColor=#b5b5b5;arcSize=50;fillColor=#000000;" parent="YbWxmgszaFembR20GTfz-60" vertex="1">
          <mxGeometry x="222.22" y="1" width="70" height="2" as="geometry" />
        </mxCell>
        <mxCell id="YbWxmgszaFembR20GTfz-46" value="" style="rounded=1;whiteSpace=wrap;html=1;strokeWidth=0.2;strokeColor=#b5b5b5;arcSize=50;fillColor=#000000;" parent="YbWxmgszaFembR20GTfz-60" vertex="1">
          <mxGeometry x="297.22" y="1" width="70" height="2" as="geometry" />
        </mxCell>
        <mxCell id="YbWxmgszaFembR20GTfz-47" value="" style="rounded=1;whiteSpace=wrap;html=1;strokeWidth=0.2;strokeColor=#b5b5b5;arcSize=50;fillColor=#000000;" parent="YbWxmgszaFembR20GTfz-60" vertex="1">
          <mxGeometry x="372.22" y="1" width="70" height="2" as="geometry" />
        </mxCell>
        <mxCell id="YbWxmgszaFembR20GTfz-50" style="edgeStyle=orthogonalEdgeStyle;rounded=0;orthogonalLoop=1;jettySize=auto;html=1;exitX=0.25;exitY=0;exitDx=0;exitDy=0;entryX=0.25;entryY=1;entryDx=0;entryDy=0;endArrow=none;endFill=0;strokeWidth=1;strokeColor=#B5B5B5;" parent="YbWxmgszaFembR20GTfz-60" edge="1">
          <mxGeometry relative="1" as="geometry">
            <mxPoint x="94.72000000000023" y="1" as="sourcePoint" />
            <mxPoint x="94.72000000000006" y="3" as="targetPoint" />
          </mxGeometry>
        </mxCell>
        <mxCell id="YbWxmgszaFembR20GTfz-51" style="edgeStyle=orthogonalEdgeStyle;rounded=0;orthogonalLoop=1;jettySize=auto;html=1;exitX=0.25;exitY=0;exitDx=0;exitDy=0;entryX=0.25;entryY=1;entryDx=0;entryDy=0;endArrow=none;endFill=0;strokeWidth=1;strokeColor=#B5B5B5;" parent="YbWxmgszaFembR20GTfz-60" edge="1">
          <mxGeometry relative="1" as="geometry">
            <mxPoint x="119.72000000000023" y="1" as="sourcePoint" />
            <mxPoint x="119.72000000000006" y="3" as="targetPoint" />
          </mxGeometry>
        </mxCell>
        <mxCell id="YbWxmgszaFembR20GTfz-52" style="edgeStyle=orthogonalEdgeStyle;rounded=0;orthogonalLoop=1;jettySize=auto;html=1;exitX=0.25;exitY=0;exitDx=0;exitDy=0;entryX=0.25;entryY=1;entryDx=0;entryDy=0;endArrow=none;endFill=0;strokeWidth=1;strokeColor=#B5B5B5;" parent="YbWxmgszaFembR20GTfz-60" edge="1">
          <mxGeometry relative="1" as="geometry">
            <mxPoint x="169.72000000000023" y="1" as="sourcePoint" />
            <mxPoint x="169.72000000000006" y="3" as="targetPoint" />
          </mxGeometry>
        </mxCell>
        <mxCell id="YbWxmgszaFembR20GTfz-53" style="edgeStyle=orthogonalEdgeStyle;rounded=0;orthogonalLoop=1;jettySize=auto;html=1;exitX=0.25;exitY=0;exitDx=0;exitDy=0;entryX=0.25;entryY=1;entryDx=0;entryDy=0;endArrow=none;endFill=0;strokeWidth=1;strokeColor=#B5B5B5;" parent="YbWxmgszaFembR20GTfz-60" edge="1">
          <mxGeometry relative="1" as="geometry">
            <mxPoint x="194.72000000000023" y="1" as="sourcePoint" />
            <mxPoint x="194.72000000000006" y="3" as="targetPoint" />
          </mxGeometry>
        </mxCell>
        <mxCell id="YbWxmgszaFembR20GTfz-54" style="edgeStyle=orthogonalEdgeStyle;rounded=0;orthogonalLoop=1;jettySize=auto;html=1;exitX=0.25;exitY=0;exitDx=0;exitDy=0;entryX=0.25;entryY=1;entryDx=0;entryDy=0;endArrow=none;endFill=0;strokeWidth=1;strokeColor=#B5B5B5;" parent="YbWxmgszaFembR20GTfz-60" edge="1">
          <mxGeometry relative="1" as="geometry">
            <mxPoint x="244.72000000000023" y="1" as="sourcePoint" />
            <mxPoint x="244.72000000000006" y="3" as="targetPoint" />
          </mxGeometry>
        </mxCell>
        <mxCell id="YbWxmgszaFembR20GTfz-55" style="edgeStyle=orthogonalEdgeStyle;rounded=0;orthogonalLoop=1;jettySize=auto;html=1;exitX=0.25;exitY=0;exitDx=0;exitDy=0;entryX=0.25;entryY=1;entryDx=0;entryDy=0;endArrow=none;endFill=0;strokeWidth=1;strokeColor=#B5B5B5;" parent="YbWxmgszaFembR20GTfz-60" edge="1">
          <mxGeometry relative="1" as="geometry">
            <mxPoint x="269.72000000000025" y="1" as="sourcePoint" />
            <mxPoint x="269.72" y="3" as="targetPoint" />
          </mxGeometry>
        </mxCell>
        <mxCell id="YbWxmgszaFembR20GTfz-56" style="edgeStyle=orthogonalEdgeStyle;rounded=0;orthogonalLoop=1;jettySize=auto;html=1;exitX=0.25;exitY=0;exitDx=0;exitDy=0;entryX=0.25;entryY=1;entryDx=0;entryDy=0;endArrow=none;endFill=0;strokeWidth=1;strokeColor=#B5B5B5;" parent="YbWxmgszaFembR20GTfz-60" edge="1">
          <mxGeometry relative="1" as="geometry">
            <mxPoint x="319.72000000000025" y="1" as="sourcePoint" />
            <mxPoint x="319.72" y="3" as="targetPoint" />
          </mxGeometry>
        </mxCell>
        <mxCell id="YbWxmgszaFembR20GTfz-57" style="edgeStyle=orthogonalEdgeStyle;rounded=0;orthogonalLoop=1;jettySize=auto;html=1;exitX=0.25;exitY=0;exitDx=0;exitDy=0;entryX=0.25;entryY=1;entryDx=0;entryDy=0;endArrow=none;endFill=0;strokeWidth=1;strokeColor=#B5B5B5;" parent="YbWxmgszaFembR20GTfz-60" edge="1">
          <mxGeometry relative="1" as="geometry">
            <mxPoint x="344.72000000000025" y="1" as="sourcePoint" />
            <mxPoint x="344.72" y="3" as="targetPoint" />
          </mxGeometry>
        </mxCell>
        <mxCell id="YbWxmgszaFembR20GTfz-58" style="edgeStyle=orthogonalEdgeStyle;rounded=0;orthogonalLoop=1;jettySize=auto;html=1;exitX=0.25;exitY=0;exitDx=0;exitDy=0;entryX=0.25;entryY=1;entryDx=0;entryDy=0;endArrow=none;endFill=0;strokeWidth=1;strokeColor=#B5B5B5;" parent="YbWxmgszaFembR20GTfz-60" edge="1">
          <mxGeometry relative="1" as="geometry">
            <mxPoint x="394.72000000000025" y="1" as="sourcePoint" />
            <mxPoint x="394.72" y="3" as="targetPoint" />
          </mxGeometry>
        </mxCell>
        <mxCell id="YbWxmgszaFembR20GTfz-59" style="edgeStyle=orthogonalEdgeStyle;rounded=0;orthogonalLoop=1;jettySize=auto;html=1;exitX=0.25;exitY=0;exitDx=0;exitDy=0;entryX=0.25;entryY=1;entryDx=0;entryDy=0;endArrow=none;endFill=0;strokeWidth=1;strokeColor=#B5B5B5;" parent="YbWxmgszaFembR20GTfz-60" edge="1">
          <mxGeometry relative="1" as="geometry">
            <mxPoint x="419.72000000000025" y="1" as="sourcePoint" />
            <mxPoint x="419.72" y="3" as="targetPoint" />
          </mxGeometry>
        </mxCell>
      </root>
    </mxGraphModel>
  </diagram>
</mxfile>
